<svg width="633" height="224" viewBox="0 0 633 224" fill="none" xmlns="http://www.w3.org/2000/svg">
<path fill-rule="evenodd" clip-rule="evenodd" d="M241.126 21.9114C246.851 19.0442 255.164 15.3106 257.428 14.4696C311.132 -5.46463 404.273 -2.92662 461.103 10.7361C480.525 15.4068 511.736 34.9511 538.347 48.0211C548.449 52.9806 556.929 57.6513 564.29 60.7263C578.403 66.6281 583.809 67.9756 600.425 68.1276C605.511 68.1732 609.432 68.0718 612.33 69.1762C616.666 70.8328 617.446 74.4143 620.42 84.5917C621.362 86.7954 632.598 130.995 632.77 132.92C634.204 148.878 628.991 171.897 615.253 175.281L555.789 192.115H64.0482L4.453 190.023C-4.86824 167.784 0.0102151 112.748 23.2069 105.742C46.505 98.7002 76.6116 90.9089 106.759 82.3222C134.961 74.2928 162.296 61.4001 175.67 54.703L241.126 21.9114Z" fill="#3E56A6"/>
<path fill-rule="evenodd" clip-rule="evenodd" d="M112.711 105.585C190.179 101.968 267.626 96.8563 345.347 93.4368L620.415 84.5867C621.357 86.7903 632.593 130.99 632.765 132.915C634.204 148.873 628.991 171.892 615.248 175.276L555.784 192.11H64.0482L4.45302 190.023C-3.64734 170.687 -1.01308 128.741 15.0458 111.188C49.4888 108.488 92.6147 106.517 112.711 105.58V105.585Z" fill="#263B97"/>
<path fill-rule="evenodd" clip-rule="evenodd" d="M583.56 173.463L628.495 161.912C625.592 168.62 621.23 173.807 615.248 175.281L555.784 192.115H64.0481L4.45299 190.028C3.00921 186.588 1.90991 182.151 1.16522 177.085L37.128 178.473C50.7198 179.881 46.6569 179.162 49.0936 164.77C54.2051 134.582 80.4768 111.593 112.123 111.593C137.387 111.593 159.226 126.244 169.606 147.515C171.151 150.686 172.484 154.288 173.806 157.601C176.491 164.339 176.714 164.415 184.601 164.202C213.781 163.407 330.104 160.332 330.104 160.332C330.104 160.332 412.673 160.139 439 155.778C445.682 154.668 445.89 155.195 447.977 150.332C450.93 143.452 455.069 137.155 460.196 131.71C471.852 119.329 488.398 111.598 506.746 111.598C537.734 111.598 563.565 133.64 569.427 162.905C571.823 174.896 571.367 176.092 583.565 173.473L583.56 173.463Z" fill="#3E56A6"/>
<path fill-rule="evenodd" clip-rule="evenodd" d="M112.118 121.365C142.027 121.365 166.273 145.61 166.273 175.525C166.273 181.315 165.361 186.892 163.679 192.125H60.5628C58.8809 186.892 57.9691 181.315 57.9691 175.525C57.9691 145.615 82.2144 121.365 112.123 121.365H112.118Z" fill="#20295A"/>
<path fill-rule="evenodd" clip-rule="evenodd" d="M112.118 223.787C138.704 223.787 160.391 202.105 160.391 175.519C160.391 148.934 138.704 127.247 112.118 127.247C85.5326 127.247 63.8455 148.929 63.8455 175.519C63.8455 202.11 85.5275 223.787 112.118 223.787Z" fill="#0E111B"/>
<path fill-rule="evenodd" clip-rule="evenodd" d="M112.118 208.843C130.472 208.843 145.442 193.873 145.442 175.524C145.442 157.176 130.472 142.201 112.118 142.201C93.7647 142.201 78.8 157.171 78.8 175.524C78.8 193.878 93.7647 208.843 112.118 208.843Z" fill="#FCE6DC"/>
<path fill-rule="evenodd" clip-rule="evenodd" d="M506.741 121.365C536.65 121.365 560.901 145.61 560.901 175.525C560.901 181.067 560.065 186.416 558.515 191.447L555.784 192.12H455.181C453.494 186.887 452.587 181.31 452.587 175.519C452.587 145.61 476.832 121.36 506.741 121.36V121.365Z" fill="#20295A"/>
<path fill-rule="evenodd" clip-rule="evenodd" d="M506.741 223.787C533.327 223.787 555.009 202.105 555.009 175.519C555.009 148.934 533.327 127.247 506.741 127.247C480.155 127.247 458.468 148.929 458.468 175.519C458.468 202.11 480.15 223.787 506.741 223.787Z" fill="#0E111B"/>
<path fill-rule="evenodd" clip-rule="evenodd" d="M506.741 208.843C525.095 208.843 540.065 193.873 540.065 175.524C540.065 157.176 525.095 142.201 506.741 142.201C488.387 142.201 473.423 157.171 473.423 175.524C473.423 193.878 488.393 208.843 506.741 208.843Z" fill="#FCE6DC"/>
<path fill-rule="evenodd" clip-rule="evenodd" d="M437.293 14.4139C411.882 10.2852 389.983 7.96501 359.592 8.22844C322.399 8.54759 285.782 12.732 260.296 22.19L160.731 75.9544L190.66 90.1693L347.059 82.54L485.338 77.2462L520.287 59.166C504.082 47.479 490.237 35.0371 473.798 26.3947C463.018 20.726 451.143 16.6682 437.288 14.419L437.293 14.4139Z" fill="#E9D4C7"/>
<path fill-rule="evenodd" clip-rule="evenodd" d="M357.171 8.23352L338.28 83.0213L356.061 82.2209L365.54 8.1626L357.171 8.23352Z" fill="#20295A"/>
<path fill-rule="evenodd" clip-rule="evenodd" d="M209.454 49.6371L208.355 89.3081L190.665 90.1743L160.741 75.9595L209.454 49.6371Z" fill="#20295A"/>
<path fill-rule="evenodd" clip-rule="evenodd" d="M452.82 19.3431L488.98 74.6373L478.676 77.4894L443.6 16.0908L452.82 19.3431Z" fill="#20295A"/>
<path fill-rule="evenodd" clip-rule="evenodd" d="M309.653 98.9232H316.274C319.217 98.9232 321.623 101.335 321.623 104.278V108.366C321.623 111.314 319.217 113.716 316.274 113.716H309.653C306.709 113.716 304.298 111.309 304.298 108.366V104.278C304.298 101.335 306.709 98.9232 309.653 98.9232Z" fill="#3E56A6"/>
<path fill-rule="evenodd" clip-rule="evenodd" d="M301.481 103.452H328.533C329.871 103.452 330.965 104.546 330.965 105.884V106.76C330.965 108.097 329.871 109.192 328.533 109.192H301.481C300.139 109.192 299.05 108.097 299.05 106.76V105.884C299.05 104.546 300.144 103.452 301.481 103.452Z" fill="#20295A"/>
<path fill-rule="evenodd" clip-rule="evenodd" d="M325.661 109.192V103.452H328.533C329.871 103.452 330.965 104.546 330.965 105.884V106.76C330.965 108.097 329.871 109.192 328.533 109.192H325.661Z" fill="#3E56A6"/>
<path d="M452.197 93.457H458.818C461.771 93.457 464.168 95.8532 464.168 98.8066V102.895C464.168 105.848 461.771 108.244 458.818 108.244H452.197C449.243 108.244 446.847 105.848 446.847 102.895V98.8066C446.847 95.8532 449.243 93.457 452.197 93.457Z" fill="#3E56A6"/>
<path fill-rule="evenodd" clip-rule="evenodd" d="M444.025 97.9809H471.077C472.42 97.9809 473.509 99.0751 473.509 100.413V101.289C473.509 102.631 472.415 103.721 471.077 103.721H444.025C442.688 103.721 441.594 102.626 441.594 101.289V100.413C441.594 99.0701 442.688 97.9809 444.025 97.9809Z" fill="#20295A"/>
<path fill-rule="evenodd" clip-rule="evenodd" d="M468.205 103.726V97.986H471.077C472.42 97.986 473.509 99.0802 473.509 100.418V101.294C473.509 102.636 472.415 103.726 471.077 103.726H468.205Z" fill="#3E56A6"/>
<path fill-rule="evenodd" clip-rule="evenodd" d="M94.4841 155.003L99.8438 159.942L105.447 165.104C105.69 165.327 106.07 165.312 106.298 165.068C106.44 164.916 106.485 164.714 106.445 164.531L104.778 157.1L103.177 149.982C99.9603 151.112 97.0221 152.829 94.4891 155.003H94.4841ZM86.5813 166.573C87.711 163.356 89.4283 160.418 91.6067 157.88L96.5459 163.24L101.708 168.843C101.931 169.086 101.916 169.471 101.673 169.694C101.521 169.835 101.318 169.881 101.136 169.841L93.7039 168.174L86.5864 166.573H86.5813ZM85.5326 180.54C85.2236 178.914 85.0615 177.232 85.0615 175.519C85.0615 173.807 85.2236 172.125 85.5326 170.499L92.4932 172.672L99.7627 174.947C100.082 175.043 100.254 175.383 100.158 175.702C100.097 175.894 99.9502 176.036 99.7627 176.097L92.4932 178.371L85.5326 180.545V180.54ZM91.6067 193.159L96.5459 187.799L101.708 182.196C101.835 182.054 101.901 181.857 101.855 181.659C101.784 181.335 101.46 181.132 101.136 181.203L93.7039 182.87L86.5864 184.471C87.716 187.688 89.4334 190.631 91.6067 193.159ZM103.172 201.057C99.9552 199.927 97.017 198.21 94.4841 196.036L99.8438 191.097L105.447 185.935C105.69 185.707 106.07 185.727 106.293 185.97C106.435 186.122 106.48 186.325 106.44 186.507L104.773 193.939L103.172 201.057ZM117.139 202.105C115.513 202.409 113.836 202.571 112.118 202.571C110.401 202.571 108.729 202.409 107.098 202.105L109.266 195.145L111.541 187.875C111.637 187.556 111.977 187.384 112.291 187.48C112.483 187.541 112.63 187.693 112.686 187.875L114.96 195.145L117.134 202.105H117.139ZM129.758 196.031L124.398 191.092L118.795 185.93C118.653 185.798 118.456 185.737 118.253 185.783C117.929 185.859 117.726 186.178 117.797 186.502L119.464 193.934L121.06 201.051C124.277 199.922 127.215 198.204 129.748 196.031H129.758ZM137.656 184.471C136.526 187.688 134.814 190.626 132.635 193.159L127.696 187.799L122.534 182.196C122.407 182.054 122.341 181.857 122.387 181.659C122.458 181.335 122.782 181.132 123.106 181.203L130.538 182.87L137.656 184.471ZM138.709 170.504C139.018 172.13 139.175 173.807 139.175 175.524C139.175 177.242 139.013 178.919 138.709 180.545L131.754 178.371L124.479 176.097C124.297 176.041 124.145 175.899 124.084 175.702C123.983 175.383 124.16 175.043 124.479 174.947L131.754 172.672L138.709 170.499V170.504ZM132.635 157.885L127.696 163.245L122.534 168.848C122.306 169.091 122.326 169.476 122.569 169.699C122.721 169.841 122.924 169.886 123.106 169.846L130.538 168.179L137.656 166.578C136.526 163.361 134.814 160.423 132.635 157.89V157.885ZM121.07 149.982C124.287 151.112 127.225 152.829 129.758 155.003L124.398 159.942L118.795 165.104C118.653 165.231 118.456 165.296 118.253 165.251C117.929 165.18 117.726 164.856 117.797 164.531L119.464 157.1L121.06 149.982H121.07ZM112.118 148.468C113.836 148.468 115.513 148.63 117.139 148.934L114.965 155.894L112.691 163.164C112.635 163.346 112.488 163.498 112.296 163.559C111.982 163.655 111.642 163.483 111.546 163.164L109.271 155.894L107.103 148.934C108.729 148.63 110.406 148.468 112.124 148.468H112.118ZM117.306 184.491C116.343 185.043 115.117 184.714 114.565 183.757C114.008 182.794 114.342 181.573 115.3 181.016C116.257 180.464 117.483 180.793 118.04 181.75C118.593 182.708 118.263 183.934 117.311 184.491H117.306ZM106.617 178.691C107.169 179.653 106.84 180.874 105.882 181.431C104.925 181.989 103.699 181.659 103.142 180.702C102.59 179.744 102.919 178.518 103.876 177.961C104.834 177.404 106.06 177.738 106.612 178.691H106.617ZM121.095 170.337C121.652 171.294 121.323 172.52 120.366 173.078C119.408 173.63 118.182 173.301 117.625 172.343C117.073 171.386 117.402 170.16 118.36 169.607C119.317 169.055 120.543 169.38 121.095 170.342V170.337ZM108.947 170.018C107.99 170.57 106.764 170.241 106.207 169.283C105.654 168.321 105.984 167.1 106.941 166.548C107.904 165.99 109.125 166.32 109.677 167.282C110.229 168.24 109.9 169.466 108.942 170.018H108.947ZM112.118 171.168C114.52 171.168 116.47 173.113 116.47 175.519C116.47 177.926 114.52 179.866 112.118 179.866C109.717 179.866 107.767 177.921 107.767 175.519C107.767 173.118 109.712 171.168 112.118 171.168Z" fill="#0E111B"/>
<path fill-rule="evenodd" clip-rule="evenodd" d="M489.107 155.003L494.467 159.942L500.07 165.104C500.313 165.327 500.693 165.312 500.921 165.068C501.057 164.916 501.108 164.714 501.062 164.531L499.396 157.1L497.8 149.982C494.583 151.112 491.64 152.829 489.107 155.003ZM481.209 166.573C482.339 163.356 484.051 160.418 486.23 157.88L491.169 163.24L496.331 168.843C496.554 169.086 496.539 169.471 496.295 169.694C496.143 169.835 495.941 169.881 495.753 169.841L488.322 168.174L481.204 166.573H481.209ZM480.156 180.54C479.846 178.914 479.689 177.232 479.689 175.519C479.689 173.807 479.846 172.125 480.15 170.499L487.116 172.672L494.386 174.947C494.7 175.043 494.882 175.383 494.781 175.702C494.72 175.894 494.568 176.036 494.386 176.097L487.116 178.371L480.156 180.545V180.54ZM486.235 193.159L491.169 187.799L496.331 182.196C496.458 182.054 496.523 181.857 496.478 181.659C496.407 181.335 496.083 181.132 495.758 181.203L488.327 182.87L481.209 184.471C482.339 187.688 484.051 190.631 486.235 193.159ZM497.8 201.057C494.583 199.927 491.64 198.21 489.107 196.036L494.467 191.097L500.07 185.935C500.313 185.707 500.693 185.727 500.921 185.97C501.057 186.122 501.108 186.325 501.062 186.507L499.396 193.939L497.8 201.057ZM511.762 202.105C510.135 202.409 508.459 202.571 506.741 202.571C505.024 202.571 503.352 202.409 501.726 202.105L503.894 195.145L506.169 187.875C506.265 187.556 506.605 187.384 506.924 187.48C507.121 187.541 507.263 187.693 507.319 187.875L509.593 195.145L511.767 202.105H511.762ZM524.381 196.031L519.021 191.092L513.418 185.93C513.276 185.798 513.079 185.737 512.876 185.783C512.552 185.859 512.349 186.178 512.42 186.502L514.087 193.934L515.683 201.051C518.899 199.922 521.838 198.204 524.371 196.031H524.381ZM532.278 184.471C531.149 187.688 529.431 190.626 527.258 193.159L522.319 187.799L517.157 182.196C517.03 182.054 516.969 181.857 517.01 181.659C517.081 181.335 517.405 181.132 517.729 181.203L525.161 182.87L532.278 184.471ZM533.332 170.504C533.641 172.13 533.798 173.807 533.798 175.524C533.798 177.242 533.641 178.919 533.332 180.545L526.377 178.371L519.102 176.097C518.92 176.041 518.768 175.899 518.707 175.702C518.606 175.383 518.788 175.043 519.102 174.947L526.377 172.672L533.332 170.499V170.504ZM527.258 157.885L522.319 163.245L517.157 168.848C516.929 169.091 516.949 169.476 517.192 169.699C517.344 169.841 517.547 169.886 517.734 169.846L525.166 168.179L532.278 166.578C531.149 163.361 529.437 160.423 527.258 157.89V157.885ZM515.693 149.982C518.91 151.112 521.848 152.829 524.381 155.003L519.021 159.942L513.418 165.104C513.276 165.231 513.079 165.296 512.876 165.251C512.552 165.18 512.349 164.856 512.42 164.531L514.087 157.1L515.683 149.982H515.693ZM506.741 148.468C508.459 148.468 510.135 148.63 511.762 148.934L509.588 155.894L507.314 163.164C507.258 163.346 507.116 163.498 506.919 163.559C506.605 163.655 506.265 163.483 506.164 163.164L503.889 155.894L501.721 148.934C503.347 148.63 505.024 148.468 506.736 148.468H506.741ZM511.924 184.491C510.966 185.043 509.74 184.714 509.188 183.757C508.636 182.794 508.96 181.573 509.923 181.016C510.88 180.464 512.106 180.793 512.663 181.75C513.216 182.708 512.891 183.934 511.929 184.491H511.924ZM501.24 178.691C501.792 179.653 501.468 180.874 500.505 181.431C499.548 181.989 498.322 181.659 497.77 180.702C497.217 179.744 497.547 178.518 498.504 177.961C499.462 177.404 500.688 177.738 501.24 178.691ZM515.718 170.337C516.27 171.294 515.941 172.52 514.984 173.078C514.026 173.63 512.8 173.301 512.248 172.343C511.696 171.386 512.02 170.16 512.982 169.607C513.94 169.055 515.166 169.38 515.723 170.342L515.718 170.337ZM503.565 170.018C502.608 170.57 501.382 170.241 500.824 169.283C500.272 168.321 500.601 167.1 501.559 166.548C502.516 165.99 503.742 166.32 504.294 167.282C504.847 168.24 504.517 169.466 503.56 170.018H503.565ZM506.741 171.168C509.148 171.168 511.093 173.113 511.093 175.519C511.093 177.926 509.148 179.866 506.741 179.866C504.335 179.866 502.39 177.921 502.39 175.519C502.39 173.118 504.335 171.168 506.741 171.168Z" fill="#0E111B"/>
<path fill-rule="evenodd" clip-rule="evenodd" d="M30.7602 110.048C31.8747 110.073 32.9436 110.129 33.9568 110.22C47.5435 111.406 44.5698 126.547 34.747 129.445C28.3488 131.33 14.1694 133.822 3.32837 135.428C5.80559 124.025 9.88363 116.669 14.8482 111.233L30.7602 110.048Z" fill="#FCE6DC"/>
<path fill-rule="evenodd" clip-rule="evenodd" d="M42.9436 120.549C42.1584 124.4 39.1392 128.143 34.747 129.44C28.3488 131.325 14.1694 133.817 3.32837 135.423C4.10345 131.851 5.03557 128.675 6.10448 125.828C6.27672 125.372 6.72252 124.222 6.89476 123.842L30.3549 121.628C34.7369 121.213 38.9517 120.762 42.9436 120.549Z" fill="#E1CDC4"/>
<path fill-rule="evenodd" clip-rule="evenodd" d="M194.419 58.2542L187.919 180.398L424.765 178.605L490.171 88.7509L447.795 18.7301L450.14 17.3319L493.362 88.7661L426.295 181.325L185.052 183.149L191.582 60.3819L194.419 58.2542Z" fill="#0E111B"/>
<path fill-rule="evenodd" clip-rule="evenodd" d="M484.654 74.5309L346.998 79.8652L191.05 87.4134L163.978 74.2066L160.731 75.9594L190.665 90.1743L347.1 82.6008L485.343 77.2462L520.287 59.166L517.831 57.3727L484.654 74.5309Z" fill="#0E111B"/>
<path fill-rule="evenodd" clip-rule="evenodd" d="M622.517 91.9829H604.138C600.192 91.9829 596.301 95.2706 596.96 99.1612L599.017 111.284C599.675 115.175 602.243 118.462 606.195 118.462H629.295L622.517 91.9778V91.9829Z" fill="#E81E25"/>
<path fill-rule="evenodd" clip-rule="evenodd" d="M362.703 8.23859L348.153 80.9493L344.06 181.568H341.37L345.438 80.5897L359.856 8.72998L362.703 8.23859Z" fill="#0E111B"/>
<path fill-rule="evenodd" clip-rule="evenodd" d="M164.393 77.0992L160.751 75.9543L260.296 22.1951C285.777 12.7371 322.393 8.55266 359.592 8.23351C389.983 7.97008 411.888 10.2903 437.293 14.419C449.831 16.4554 459.816 19.5811 468.686 23.6794C481.31 29.5052 491.68 37.3016 503.935 46.709C506.351 48.5631 517.694 57.1903 520.287 59.171L517.405 60.4173C514.938 58.5327 503.707 49.9967 501.397 48.2287C489.482 39.1101 479.244 31.5619 466.908 25.9439C458.332 22.0381 448.737 19.0593 436.852 17.1241C408.721 12.5547 388.108 10.731 359.613 10.9742C341.72 11.1261 323.655 12.1342 305.909 14.5051C291.066 16.4858 275.504 19.495 261.425 24.7027L164.388 77.1043L164.393 77.0992Z" fill="#0E111B"/>
<path fill-rule="evenodd" clip-rule="evenodd" d="M214.206 64.6777C213.355 62.3828 214.525 59.8296 216.825 58.9785C219.12 58.1275 221.673 59.2977 222.524 61.5976L231.38 85.4681L222.089 85.924L214.206 64.6827V64.6777Z" fill="#0E111B"/>
<path fill-rule="evenodd" clip-rule="evenodd" d="M201.835 85.1692C203.229 87.383 206.349 87.7528 212.261 88.0163C218.173 88.2848 223.761 89.3081 223.816 79.7386C223.867 70.1691 223.067 62.2663 217.742 61.7851C212.423 61.3038 205.382 62.5906 202.96 64.5814C197.028 69.4599 198.74 80.2705 201.83 85.1642L201.835 85.1692Z" fill="#3E56A6"/>
<path fill-rule="evenodd" clip-rule="evenodd" d="M199.009 74.7589C206.932 75.7467 215.691 76.6738 223.781 75.9291C223.816 77.1601 223.821 78.4316 223.816 79.7437C223.76 89.3081 218.178 88.2848 212.261 88.0214C206.349 87.7529 203.234 87.3831 201.835 85.1743C200.275 82.7022 199.064 78.7254 199.014 74.7639L199.009 74.7589Z" fill="#263B97"/>
<path fill-rule="evenodd" clip-rule="evenodd" d="M316.036 54.0849C323.66 51.5925 338.619 52.9501 344.709 57.5905L338.984 80.2553L306.319 81.8409L316.036 54.09V54.0849Z" fill="#A69687"/>
<path fill-rule="evenodd" clip-rule="evenodd" d="M452.643 52.9248C456.624 52.7019 461.169 53.0312 465.186 53.8772L477.156 74.8247L436.482 76.4154L442.242 60.6959C443.529 57.1852 445.221 53.3402 452.643 52.9248Z" fill="#A69687"/>
<path fill-rule="evenodd" clip-rule="evenodd" d="M231.294 85.4783L259.956 84.0699C260.954 81.9929 261.669 80.4934 262.778 77.5501C260.063 74.926 254.505 70.8328 250.088 70.2249C247.575 73.4721 245.225 79.3587 243.695 83.2442C240.686 82.0537 236.673 80.4124 229.211 79.8045L231.294 85.4783Z" fill="#F6B778"/>
<path fill-rule="evenodd" clip-rule="evenodd" d="M257.813 59.9867C257.793 61.1468 261.395 66.2684 259.637 71.1266C257.737 76.39 256.506 80.4073 255.584 84.308L306.76 81.8257C310.63 73.5582 313.619 68.6848 316 55.8529C314.354 54.3838 310.838 52.6259 307.712 51.6178C303.797 50.3564 299.521 49.4142 296.593 49.2369C282.535 48.401 265.027 53.1072 257.813 59.9867Z" fill="#43301A"/>
<path fill-rule="evenodd" clip-rule="evenodd" d="M279.11 59.5611C285.453 60.4882 294.318 56.5165 297.834 49.3534L295.944 48.8873L299.764 29.5508L281.233 35.9338L275.382 51.6989C274.217 56.3747 274.86 58.9431 279.11 59.5662V59.5611Z" fill="url(#paint0_linear_72_166)"/>
<path fill-rule="evenodd" clip-rule="evenodd" d="M263.624 81.77C259.435 79.622 251.694 74.9057 248.259 72.0941C250.291 68.1883 254.49 62.4841 259.298 58.7658C261.091 57.6259 267.95 68.2137 263.624 81.77Z" fill="#43301A"/>
<path fill-rule="evenodd" clip-rule="evenodd" d="M272.018 47.6968C274.784 48.3858 283.204 51.1872 286.512 50.3362C292.251 47.2004 296.917 45.6604 301.436 29.7788C302.414 23.5224 304.268 17.9347 302.53 13.9884C299.764 7.6915 291.289 4.8242 281.279 4.93059C273.224 5.01671 275.271 13.0867 271.223 23.1881C270.549 24.8699 269.962 26.4961 269.556 28.335C268.533 32.9551 269.004 39.1507 272.018 47.6968Z" fill="url(#paint1_linear_72_166)"/>
<path fill-rule="evenodd" clip-rule="evenodd" d="M269.551 28.4363C268.315 33.9024 268.822 37.3067 268.477 42.3422C269.43 46.1872 270.012 47.5702 270.686 48.7758C273.66 49.8701 276.659 51.02 285.352 51.8356C294.106 48.2844 298.214 40.7312 300.61 32.6511L298.67 31.5315C296.248 37.2104 288.67 45.1993 281.745 44.2115C281.112 43.558 280.195 42.4637 279.561 41.8102C278.903 41.7545 278.249 41.6988 277.591 41.6481C276.851 42.0686 275.828 42.6765 275.088 43.097C269.901 40.412 268.741 33.6947 269.551 28.4312V28.4363Z" fill="url(#paint2_linear_72_166)"/>
<path fill-rule="evenodd" clip-rule="evenodd" d="M279.05 34.0645C279.739 34.1709 281.699 34.4901 283.194 35.1588C285.397 36.1466 286.816 36.9166 287.88 36.9977C288.579 37.0534 289.308 36.6887 289.521 36.0251C289.597 35.7819 289.521 35.3766 289.384 34.8751C288.923 35.3969 288.548 35.1942 287.89 34.8498C287.454 34.6218 286.826 34.1101 286.157 33.563C285.559 33.0716 284.957 32.7272 284.561 32.5245C283.239 31.8558 282.074 31.5316 280.412 31.8204C279.126 31.3036 278.376 31.1061 277.515 31.1567C274.941 31.3036 274.404 32.3776 273.244 32.5498C273.001 32.5853 272.444 32.4333 272.378 32.2054C272.185 32.4181 271.947 32.7829 271.978 33.2743C272.018 33.8822 272.434 34.3381 273.315 34.4496C274.344 34.5813 276.076 33.7809 279.06 34.0595L279.05 34.0645Z" fill="#76483D"/>
<path fill-rule="evenodd" clip-rule="evenodd" d="M292.17 24.5103C291.856 25.6551 290.519 26.0351 288.776 25.5082C287.034 24.9814 285.554 23.7504 285.863 22.6105C286.177 21.4657 287.839 20.9641 289.582 21.491C291.324 22.0128 292.479 23.3704 292.17 24.5103Z" fill="white"/>
<path fill-rule="evenodd" clip-rule="evenodd" d="M279.952 21.1971C279.936 22.2154 278.67 22.9195 277.018 22.8587C275.367 22.7929 273.959 21.9874 273.974 20.9692C273.984 19.9509 275.336 19.1758 276.988 19.2417C278.639 19.3076 279.967 20.184 279.957 21.2022L279.952 21.1971Z" fill="white"/>
<path fill-rule="evenodd" clip-rule="evenodd" d="M287.596 21.8405C287.226 22.0432 286.937 22.3927 286.821 22.8385C286.588 23.7149 287.115 24.6369 287.991 24.8902C288.867 25.1435 289.769 24.642 289.997 23.7605C290.093 23.4008 290.058 23.0361 289.931 22.7118C289.192 22.57 288.285 22.2964 287.596 21.8405Z" fill="#484E4B"/>
<path fill-rule="evenodd" clip-rule="evenodd" d="M275.088 19.8497C274.465 20.7564 274.653 22.3978 276.39 22.489C277.479 22.5447 278.254 21.8304 278.244 20.7514C278.244 20.412 278.163 20.0878 278.032 19.799C277.028 19.6926 276.086 19.7585 275.088 19.8497Z" fill="#484E4B"/>
<path fill-rule="evenodd" clip-rule="evenodd" d="M281.659 22.2661C281.659 22.2661 280.752 24.8243 280.21 26.3492C279.465 26.2884 278.366 26.1567 277.297 26.0553C277.201 27.185 276.963 29.0442 276.861 30.5994C278.528 30.7464 285.954 31.5417 285.954 31.5417L283.568 22.9044L281.659 22.2711V22.2661Z" fill="url(#paint3_linear_72_166)"/>
<path fill-rule="evenodd" clip-rule="evenodd" d="M285.448 36.2986C285.448 36.2986 279.176 37.2104 274.328 34.7636C274.328 34.7636 274.298 37.0129 275.367 38.867C276.567 40.9541 279.318 41.6026 281.461 40.6755C283.417 39.8244 284.612 38.0159 285.453 36.2986H285.448Z" fill="#6C3F3A"/>
<path fill-rule="evenodd" clip-rule="evenodd" d="M283.487 37.9957C283.999 37.3928 284.217 37.0281 284.521 36.3999C284.521 36.3999 282.084 36.6329 279.192 36.1973C277.727 35.9744 276.213 35.6653 274.693 34.9004C274.693 34.9004 274.987 35.9136 275.255 37.0787C276.968 37.8234 282.272 38.3705 283.482 37.9957H283.487Z" fill="white"/>
<path fill-rule="evenodd" clip-rule="evenodd" d="M295.326 29.946C295.296 29.9257 292.115 28.0716 287.971 27.1547L288.052 26.7291C292.262 27.6613 295.499 29.5508 295.534 29.5711L295.326 29.946Z" fill="#DEA476"/>
<path fill-rule="evenodd" clip-rule="evenodd" d="M295.179 31.5519L292.109 29.2975L292.358 28.948L295.428 31.2023L295.179 31.5519Z" fill="#DEA476"/>
<path fill-rule="evenodd" clip-rule="evenodd" d="M280.423 20.6855C278.346 20.3613 276.066 20.0877 274.024 20.1536C274.511 19.2823 275.98 18.953 276.942 18.9631C277.879 18.9682 279.784 19.4292 280.423 20.6906V20.6855Z" fill="#41392B"/>
<path fill-rule="evenodd" clip-rule="evenodd" d="M294.308 19.3836L293.7 21.2985C293.7 21.2985 288.346 19.2063 287.211 18.6642C286.76 16.5872 287.945 14.7686 287.945 14.7686L294.313 19.3886L294.308 19.3836Z" fill="url(#paint4_linear_72_166)"/>
<path fill-rule="evenodd" clip-rule="evenodd" d="M275.306 15.8982L275.58 17.1191C275.58 17.1191 277.89 17.1647 280.701 17.2255C280.645 16.1667 280.62 14.7584 280.651 14.1252L275.306 15.8982Z" fill="url(#paint5_linear_72_166)"/>
<path fill-rule="evenodd" clip-rule="evenodd" d="M276.415 30.569L276.887 25.5386L279.916 25.9034L281.274 22.0837L282.084 22.3927L280.504 26.8507L277.662 26.5062L277.251 30.6501L276.415 30.569Z" fill="#D18041"/>
<path fill-rule="evenodd" clip-rule="evenodd" d="M284.136 0.158508C283.457 0.827206 284.04 2.07848 284.764 2.59014C286.132 3.56785 288.999 3.4564 290.666 3.40068C293.138 3.31456 295.615 3.97819 297.51 5.73099C299.678 7.73708 303.726 13.5477 304.232 16.2073L301.213 31.8609L300.985 32.6157L298.68 31.2074L300.443 15.5588L292.799 10.5942C292.799 10.5942 286.436 13.3298 283.644 11.9722C280.853 10.6196 278.639 7.89413 278.639 7.89413L275.022 9.1302C275.473 6.83535 275.402 4.77354 277.272 4.00859C279.901 2.93462 279.83 0.832272 284.136 0.148376V0.158508Z" fill="url(#paint6_linear_72_166)"/>
<path fill-rule="evenodd" clip-rule="evenodd" d="M299.521 34.0746C300.727 34.6268 302.191 33.9277 302.793 32.5093C303.396 31.0908 302.91 29.4951 301.709 28.9378C300.504 28.3856 299.04 29.0847 298.437 30.5032C297.834 31.9216 298.32 33.5174 299.521 34.0746Z" fill="url(#paint7_linear_72_166)"/>
<path fill-rule="evenodd" clip-rule="evenodd" d="M292.829 24.0037C292.165 23.801 291.578 23.5731 290.99 23.3502C290.407 23.1273 289.845 22.9094 289.278 22.7068C288.715 22.5041 288.153 22.3167 287.571 22.1546C286.988 21.9874 286.39 21.8557 285.716 21.6987C286.289 21.3137 286.978 21.1566 287.662 21.1364C288.351 21.1212 289.04 21.2478 289.683 21.4808C290.326 21.7139 290.929 22.0482 291.471 22.4636C292.003 22.8841 292.49 23.3805 292.824 23.9986L292.829 24.0037Z" fill="#41392B"/>
<path fill-rule="evenodd" clip-rule="evenodd" d="M307.981 78.467C314.08 76.6028 323.923 72.9503 327.53 70.4832C326.112 67.4487 321.35 60.2957 318.478 57.7425C316.856 56.2987 315.088 55.0727 313.766 54.3027C310.068 56.6026 306.613 61.5774 305.889 67.9097C305.534 71.005 306.537 76.8308 307.981 78.467Z" fill="#43301A"/>
<path fill-rule="evenodd" clip-rule="evenodd" d="M305.894 50.5996C296.512 59.0799 288.042 65.1995 274.901 83.3202L282.606 82.9453C293.837 68.1478 303.447 59.5206 311.34 52.4942C310.843 51.1112 307.449 50.3919 305.894 50.6046V50.5996Z" fill="#989898"/>
<path fill-rule="evenodd" clip-rule="evenodd" d="M330.853 94.7083C327.566 96.7955 319.607 97.0792 314.227 95.757C305.301 93.5685 292.104 88.3861 286.522 85.691L277.211 85.4276L270.873 83.6191C271.446 82.5856 274.227 79.9514 274.718 79.4802C278.442 78.8014 279.197 78.7913 281.846 78.9686C284.419 79.4498 286.375 80.0628 288.194 80.6099C296.573 82.2817 308.736 82.0942 317.373 85.2047C316.613 84.2017 313.873 80.6049 313.052 79.3435C315.549 78.5836 328.093 79.9311 331.279 81.2178C331.598 82.7022 332.419 89.9464 330.853 94.7032V94.7083Z" fill="#F6B778"/>
<path fill-rule="evenodd" clip-rule="evenodd" d="M309.815 77.8744C312.88 82.2513 316.588 87.7782 322.961 90.6759C325.889 91.2128 330.084 91.3648 331.441 89.7843C332.809 84.7234 330.646 77.5299 327.981 72.3931C327.672 71.8003 327.383 71.2532 327.105 70.7517C322.875 73.1681 317.718 75.3921 309.81 77.8744H309.815Z" fill="#F6B778"/>
<defs>
<linearGradient id="paint0_linear_72_166" x1="287.241" y1="35.3563" x2="287.52" y2="61.6685" gradientUnits="userSpaceOnUse">
<stop stop-color="#EA9446"/>
<stop offset="1" stop-color="#F5CA79"/>
</linearGradient>
<linearGradient id="paint1_linear_72_166" x1="273.457" y1="59.0546" x2="285.752" y2="26.5873" gradientUnits="userSpaceOnUse">
<stop stop-color="#F7B375"/>
<stop offset="1" stop-color="#F8C878"/>
</linearGradient>
<linearGradient id="paint2_linear_72_166" x1="279.232" y1="25.0877" x2="289.789" y2="51.0302" gradientUnits="userSpaceOnUse">
<stop stop-color="#623035"/>
<stop offset="0.21" stop-color="#623035"/>
<stop offset="0.77" stop-color="#936127"/>
<stop offset="1" stop-color="#936127"/>
</linearGradient>
<linearGradient id="paint3_linear_72_166" x1="276.785" y1="26.567" x2="283.543" y2="26.8912" gradientUnits="userSpaceOnUse">
<stop stop-color="#F2B062"/>
<stop offset="1" stop-color="#F8C878"/>
</linearGradient>
<linearGradient id="paint4_linear_72_166" x1="293.974" y1="17.8132" x2="287.454" y2="18.259" gradientUnits="userSpaceOnUse">
<stop stop-color="#401218"/>
<stop offset="0.21" stop-color="#401218"/>
<stop offset="0.77" stop-color="#824C1F"/>
<stop offset="1" stop-color="#824C1F"/>
</linearGradient>
<linearGradient id="paint5_linear_72_166" x1="275.929" y1="14.9712" x2="280.808" y2="16.4251" gradientUnits="userSpaceOnUse">
<stop stop-color="#401218"/>
<stop offset="0.21" stop-color="#401218"/>
<stop offset="0.77" stop-color="#824C1F"/>
<stop offset="1" stop-color="#824C1F"/>
</linearGradient>
<linearGradient id="paint6_linear_72_166" x1="285.063" y1="26.8254" x2="294.84" y2="3.99846" gradientUnits="userSpaceOnUse">
<stop stop-color="#401218"/>
<stop offset="0.21" stop-color="#401218"/>
<stop offset="0.77" stop-color="#824C1F"/>
<stop offset="1" stop-color="#824C1F"/>
</linearGradient>
<linearGradient id="paint7_linear_72_166" x1="302.88" y1="31.7241" x2="298.634" y2="31.3188" gradientUnits="userSpaceOnUse">
<stop stop-color="#F6AF71"/>
<stop offset="1" stop-color="#F5CA79"/>
</linearGradient>
</defs>
</svg>
