<svg width="700" height="470" viewBox="0 0 700 470" fill="none" xmlns="http://www.w3.org/2000/svg">
<path fill-rule="evenodd" clip-rule="evenodd" d="M0 112.714L113.226 63.4003V469.892H0V112.714Z" fill="#B5CAE8"/>
<path fill-rule="evenodd" clip-rule="evenodd" d="M433 104.467L593 54V470H433V104.467Z" fill="#B5CAE8"/>
<path d="M578.729 128.2H449.294V137.597H578.729V128.2Z" fill="#D1DBED"/>
<path d="M578.814 151.028H449.379V160.425H578.814V151.028Z" fill="#D1DBED"/>
<path d="M578.895 173.852H449.46V183.249H578.895V173.852Z" fill="#D1DBED"/>
<path d="M578.98 196.68H449.545V206.077H578.98V196.68Z" fill="#D1DBED"/>
<path d="M579.065 219.504H449.63V228.901H579.065V219.504Z" fill="#D1DBED"/>
<path d="M579.151 242.328H449.716V251.725H579.151V242.328Z" fill="#D1DBED"/>
<path d="M579.236 265.156H449.801V274.553H579.236V265.156Z" fill="#D1DBED"/>
<path d="M579.321 287.98H449.886V297.376H579.321V287.98Z" fill="#D1DBED"/>
<path d="M579.402 310.808H449.967V320.205H579.402V310.808Z" fill="#D1DBED"/>
<path d="M579.487 333.631H450.052V343.033H579.487V333.631Z" fill="#D1DBED"/>
<path d="M579.572 356.455H450.137V365.852H579.572V356.455Z" fill="#D1DBED"/>
<path d="M579.657 379.283H450.222V388.68H579.657V379.283Z" fill="#D1DBED"/>
<path d="M579.743 402.107H450.308V411.504H579.743V402.107Z" fill="#D1DBED"/>
<path d="M579.828 424.935H450.393V434.332H579.828V424.935Z" fill="#D1DBED"/>
<path d="M579.909 447.759H450.474V457.156H579.909V447.759Z" fill="#D1DBED"/>
<path d="M441 185H281V470H441V185Z" fill="#D1DBED"/>
<path d="M324 243H164V470H324V243Z" fill="#B5CAE8"/>
<path fill-rule="evenodd" clip-rule="evenodd" d="M408.269 42.0934C409.259 41.9783 410.311 41.9207 411.302 41.8056C409.567 32.8205 405.73 21.8249 395.945 20.6115C387.891 19.5753 380.784 26.3684 372.601 26.4879C362.499 8.77456 336.871 -13.9429 298.033 20.6824C287.609 6.90579 266.804 -2.40259 244.8 1.37921C238.546 2.876 223.56 3.18155 206.351 23.7247C199.973 23.2818 193.468 21.7098 187.28 23.2065C183.016 24.2428 169.508 30.7347 175.515 42.0934H408.269Z" fill="#DEE8F9"/>
<path d="M564.976 61.1113C564.976 62.5653 565.062 64.0193 565.234 65.4644C563.422 65.2732 561.596 65.1754 559.77 65.1709C533.016 65.1709 511.335 85.2955 511.335 110.12C511.335 124.82 519.067 138.586 532.025 146.959H531.753C498.754 146.959 472 171.788 472 202.415C472 233.042 496.857 256.057 528.206 257.76C518.6 265.705 513.104 277.111 513.108 289.089C513.108 312.313 533.398 331.139 558.421 331.139C577.09 331.157 593.861 320.499 600.669 304.287C610.585 309.49 621.774 312.215 633.148 312.202C649.252 312.202 693.397 291.228 699.342 250.774C703.247 224.18 689.488 197.066 664.36 180.396C688.373 154.233 685.102 114.864 657.052 92.4676C652.947 89.1906 648.432 86.3894 643.608 84.1261C648.709 77.3987 651.44 69.3595 651.431 61.1202C651.431 38.9592 632.081 21 608.201 21C584.322 21 564.976 38.9503 564.976 61.1113Z" fill="#40947E"/>
<path d="M611.003 470H578.996C576.238 470 574 467.965 574 465.446C574 465.373 574 465.296 574.005 465.223L590.006 179.325C590.151 176.806 592.506 174.874 595.264 175.006C597.816 175.131 599.857 176.994 599.993 179.325L615.994 465.223C616.13 467.734 614.01 469.871 611.256 469.996C611.171 469.996 611.087 470 611.003 470Z" fill="#93493A"/>
<path d="M589.104 264.042C589.032 263.954 588.937 263.878 588.827 263.829C586.672 262.749 584.837 261.161 582.63 260.156C580.055 258.996 565.744 249.178 557.492 232.25C553.411 223.873 552.119 216.443 550.789 208.782C549.068 198.867 548.882 189.951 547.929 189.951C547.819 189.951 547.399 190.08 546.675 195.363C546.198 199 545.202 206.123 545.721 213.104C546.208 219.031 547.466 224.883 549.468 230.525C547.185 229.329 545.655 228.52 543.914 227.119C541.936 225.505 540.201 223.651 538.752 221.606C537.379 219.769 536.177 217.826 535.157 215.799C533.341 212.241 531.567 207.871 529.594 201.614C528.421 197.826 527.453 193.984 526.7 190.103C526.638 189.831 526.352 189.658 526.061 189.716C525.832 189.76 525.661 189.938 525.637 190.156C525.084 196.857 525.575 203.598 527.1 210.165C527.711 212.802 528.478 215.407 529.398 217.968C530.313 220.623 531.443 223.211 532.778 225.71C534.246 228.333 536.277 230.645 538.747 232.504C541.555 234.683 544.773 236.363 548.234 237.457C549.692 237.929 551.189 238.293 552.705 238.555C554.798 243.206 557.315 247.684 560.223 251.935C573.839 270.801 587.235 272.179 587.454 272.188C587.683 272.206 587.916 272.153 588.107 272.033C588.293 271.895 588.408 271.699 588.436 271.481L589.266 264.612C589.289 264.412 589.232 264.207 589.104 264.042Z" fill="#93493A"/>
<path d="M589.437 215.492C589.509 215.403 589.604 215.332 589.709 215.278C591.864 214.198 593.704 212.61 595.906 211.606C598.481 210.445 612.787 200.627 621.04 183.7C625.125 175.323 626.417 167.893 627.747 160.231C629.468 150.316 629.654 141.401 630.607 141.401C630.722 141.401 631.141 141.525 631.866 146.808C632.343 150.449 633.339 157.572 632.819 164.553C632.338 170.48 631.079 176.328 629.077 181.97C631.051 181.023 632.91 179.885 634.626 178.569C636.605 176.954 638.345 175.1 639.794 173.055C641.167 171.219 642.368 169.275 643.384 167.243C645.205 163.686 646.978 159.32 648.952 153.064C650.125 149.275 651.092 145.434 651.846 141.552C651.908 141.281 652.194 141.107 652.484 141.165C652.713 141.21 652.885 141.387 652.909 141.605C653.462 148.306 652.971 155.047 651.445 161.614C650.835 164.251 650.067 166.857 649.147 169.418C648.227 172.072 647.097 174.66 645.767 177.159C644.299 179.782 642.268 182.095 639.799 183.953C636.991 186.132 633.773 187.813 630.312 188.907C628.853 189.378 627.356 189.742 625.84 190.005C623.743 194.656 621.23 199.129 618.322 203.384C604.707 222.25 591.306 223.629 591.091 223.638C590.863 223.655 590.629 223.602 590.438 223.482C590.252 223.349 590.133 223.149 590.109 222.931L589.28 216.056C589.256 215.856 589.308 215.656 589.437 215.492Z" fill="#93493A"/>
<path d="M590.915 150.218C591.416 150.623 591.978 150.956 592.588 151.201C593.222 151.45 593.899 151.583 594.586 151.588C595.277 151.588 595.964 151.467 596.607 151.241C597.236 151.014 597.837 150.716 598.385 150.351C598.924 149.996 599.429 149.596 599.892 149.155C600.121 148.937 600.34 148.711 600.554 148.475L600.626 148.395C601.251 149.155 602.013 149.813 602.871 150.343C603.448 150.68 604.082 150.929 604.74 151.085C605.403 151.227 606.089 151.258 606.761 151.178C608.058 151.018 609.293 150.556 610.356 149.845C611.391 149.173 612.301 148.355 613.054 147.417C612.134 148.173 611.119 148.822 610.037 149.36C609.007 149.889 607.872 150.205 606.7 150.28C606.137 150.298 605.574 150.236 605.036 150.094C604.502 149.938 603.996 149.711 603.534 149.422C602.6 148.786 601.804 147.999 601.179 147.092L600.664 146.372L600.125 147.092C599.978 147.297 599.787 147.537 599.601 147.737C599.415 147.937 599.215 148.182 599.01 148.355C598.609 148.755 598.166 149.124 597.694 149.453C596.798 150.125 595.716 150.547 594.572 150.667C594.004 150.698 593.432 150.632 592.889 150.471C592.326 150.311 591.792 150.067 591.306 149.751C590.291 149.098 589.375 148.311 588.598 147.417C589.18 148.475 589.966 149.427 590.915 150.218Z" fill="#4E4E4E"/>
<path d="M634.731 130.205C634.969 129.635 635.108 129.035 635.146 128.426C635.184 127.79 635.084 127.154 634.85 126.554C634.612 125.954 634.259 125.398 633.806 124.913C633.368 124.438 632.862 124.02 632.305 123.664C631.756 123.317 631.18 123.019 630.574 122.775C630.278 122.65 629.969 122.539 629.664 122.432L629.549 122.397C630.107 121.592 630.512 120.707 630.75 119.773C630.893 119.155 630.927 118.519 630.855 117.888C630.774 117.265 630.569 116.665 630.259 116.109C629.64 115.038 628.753 114.122 627.671 113.442C626.636 112.775 625.492 112.263 624.286 111.93C625.363 112.468 626.369 113.126 627.285 113.886C628.176 114.602 628.891 115.491 629.373 116.492C629.587 116.972 629.716 117.483 629.754 118.004C629.778 118.524 629.725 119.044 629.592 119.547C629.273 120.578 628.748 121.547 628.047 122.401L627.494 123.099L628.41 123.317C628.667 123.379 628.967 123.464 629.239 123.553C629.511 123.642 629.797 123.744 630.069 123.855C630.612 124.069 631.137 124.326 631.632 124.624C632.619 125.171 633.42 125.972 633.935 126.928C634.169 127.412 634.297 127.932 634.316 128.462C634.345 129.009 634.283 129.56 634.135 130.089C633.821 131.201 633.339 132.263 632.705 133.25C633.577 132.361 634.269 131.33 634.731 130.205Z" fill="#4E4E4E"/>
<path d="M589.647 102.25C588.989 102.316 588.346 102.477 587.74 102.73C587.111 102.988 586.548 103.366 586.081 103.833C585.614 104.304 585.242 104.851 584.989 105.447C584.737 106.025 584.565 106.634 584.484 107.256C584.398 107.866 584.374 108.484 584.413 109.097C584.413 109.4 584.46 109.706 584.503 109.987V110.093C583.473 110 582.439 110.071 581.438 110.307C580.78 110.476 580.155 110.738 579.588 111.085C579.03 111.445 578.544 111.899 578.158 112.419C577.409 113.419 576.942 114.571 576.785 115.78C576.618 116.941 576.656 118.119 576.89 119.271C576.914 118.132 577.08 116.999 577.39 115.896C577.667 114.829 578.191 113.833 578.925 112.979C579.292 112.583 579.722 112.241 580.198 111.97C580.685 111.712 581.204 111.521 581.748 111.401C582.882 111.187 584.055 111.178 585.194 111.365L586.114 111.503L585.9 110.645C585.843 110.405 585.786 110.12 585.747 109.853C585.709 109.586 585.676 109.302 585.657 109.026C585.604 108.479 585.604 107.932 585.657 107.385C585.733 106.318 586.134 105.296 586.81 104.433C587.168 104.019 587.602 103.673 588.098 103.415C588.608 103.139 589.166 102.939 589.742 102.819C590.948 102.565 592.193 102.477 593.427 102.552C592.198 102.236 590.915 102.13 589.647 102.25Z" fill="#4E4E4E"/>
<path d="M617.049 265.47C617.712 265.448 618.37 265.332 618.994 265.123C619.643 264.905 620.234 264.572 620.739 264.136C621.24 263.7 621.655 263.18 621.955 262.602C622.25 262.037 622.465 261.437 622.603 260.823C622.732 260.223 622.803 259.609 622.818 258.996V257.973C623.833 258.133 624.877 258.133 625.893 257.973C626.56 257.853 627.204 257.631 627.8 257.324C628.386 257.013 628.91 256.599 629.344 256.114C630.169 255.167 630.727 254.051 630.979 252.855C631.237 251.708 631.294 250.534 631.151 249.369C631.041 250.503 630.784 251.624 630.388 252.7C630.026 253.745 629.42 254.701 628.62 255.505C628.224 255.874 627.771 256.186 627.27 256.421C626.765 256.639 626.231 256.79 625.683 256.866C624.534 256.995 623.366 256.928 622.246 256.661L621.34 256.466L621.478 257.355C621.521 257.595 621.554 257.884 621.574 258.155C621.593 258.427 621.602 258.707 621.574 258.982C621.574 259.529 621.526 260.076 621.426 260.619C621.264 261.677 620.782 262.673 620.038 263.487C619.648 263.873 619.185 264.189 618.67 264.412C618.141 264.652 617.574 264.816 616.987 264.896C615.762 265.061 614.513 265.061 613.288 264.896C614.494 265.301 615.767 265.496 617.049 265.47Z" fill="#4E4E4E"/>
<path d="M646.349 208.604C646.912 208.275 647.412 207.866 647.836 207.39C648.27 206.897 648.594 206.328 648.79 205.718C648.981 205.105 649.052 204.46 649 203.824C648.947 203.202 648.809 202.584 648.59 201.992C648.375 201.41 648.099 200.85 647.774 200.312C647.617 200.045 647.441 199.787 647.26 199.533C647.24 199.502 647.217 199.471 647.193 199.445C648.156 199.102 649.052 198.613 649.843 197.995C650.354 197.573 650.787 197.083 651.135 196.537C651.469 195.985 651.693 195.385 651.803 194.758C651.989 193.562 651.865 192.339 651.431 191.201C651.026 190.089 650.435 189.049 649.677 188.115C650.201 189.147 650.587 190.232 650.835 191.348C651.097 192.415 651.097 193.526 650.835 194.593C650.697 195.1 650.477 195.581 650.177 196.021C649.862 196.452 649.486 196.839 649.057 197.168C648.137 197.822 647.097 198.315 645.987 198.613L645.095 198.867L645.691 199.547C645.858 199.738 646.049 199.991 646.211 200.196C646.373 200.401 646.535 200.641 646.687 200.899C646.988 201.37 647.245 201.868 647.455 202.379C647.894 203.362 648.022 204.442 647.827 205.492C647.703 206.008 647.474 206.497 647.155 206.932C646.826 207.39 646.425 207.799 645.963 208.146C644.995 208.867 643.927 209.453 642.788 209.898C644.051 209.676 645.257 209.236 646.349 208.604Z" fill="#4E4E4E"/>
<path d="M619.943 233.74C620.162 233.335 620.315 232.9 620.386 232.45C620.463 231.988 620.439 231.512 620.315 231.059C620.186 230.601 619.972 230.174 619.676 229.787C619.385 229.409 619.047 229.071 618.665 228.773C618.294 228.484 617.893 228.222 617.469 228C617.259 227.888 617.045 227.786 616.825 227.688L616.749 227.657C617.216 227.101 617.583 226.479 617.831 225.812C617.979 225.367 618.055 224.905 618.05 224.438C618.036 223.98 617.936 223.531 617.75 223.104C617.378 222.277 616.801 221.548 616.058 220.979C615.347 220.414 614.542 219.965 613.674 219.645C614.427 220.112 615.114 220.659 615.729 221.277C616.325 221.859 616.778 222.557 617.054 223.322C617.173 223.691 617.23 224.073 617.221 224.456C617.197 224.838 617.121 225.212 616.983 225.572C616.668 226.31 616.21 226.986 615.633 227.564L615.157 228.04L615.81 228.257C615.991 228.32 616.205 228.404 616.401 228.489C616.596 228.573 616.797 228.667 616.987 228.764C617.369 228.96 617.731 229.182 618.074 229.431C618.756 229.898 619.276 230.534 619.581 231.268C619.714 231.637 619.767 232.028 619.743 232.419C619.724 232.824 619.638 233.22 619.485 233.598C619.171 234.394 618.737 235.141 618.198 235.821C618.913 235.234 619.509 234.531 619.943 233.74Z" fill="#4E4E4E"/>
<path d="M578.349 201.41C577.691 201.477 577.047 201.637 576.442 201.89C575.812 202.148 575.25 202.521 574.783 202.993C574.315 203.464 573.944 204.007 573.691 204.602C573.438 205.185 573.271 205.794 573.186 206.417C573.1 207.026 573.076 207.639 573.114 208.253C573.114 208.56 573.162 208.862 573.205 209.142V209.249C572.175 209.16 571.14 209.231 570.139 209.462C569.481 209.631 568.857 209.894 568.29 210.241C567.732 210.605 567.25 211.054 566.859 211.574C566.116 212.575 565.644 213.727 565.491 214.936C565.324 216.096 565.362 217.275 565.596 218.422C565.61 217.284 565.772 216.15 566.073 215.047C566.349 213.984 566.878 212.988 567.613 212.135C567.975 211.739 568.409 211.397 568.885 211.125C569.367 210.863 569.891 210.672 570.435 210.552C571.569 210.343 572.737 210.334 573.877 210.521L574.797 210.654L574.587 209.8C574.53 209.56 574.473 209.276 574.435 209.004C574.396 208.733 574.358 208.457 574.344 208.182C574.292 207.635 574.292 207.088 574.344 206.541C574.416 205.474 574.816 204.451 575.493 203.589C575.85 203.175 576.289 202.828 576.785 202.57C577.295 202.29 577.853 202.09 578.43 201.97C579.64 201.721 580.88 201.632 582.115 201.703C580.889 201.392 579.612 201.294 578.349 201.41Z" fill="#4E4E4E"/>
<path d="M547.18 272.486C547.242 272.913 547.371 273.331 547.571 273.722C547.776 274.127 548.067 274.487 548.424 274.785C548.787 275.083 549.201 275.319 549.654 275.474C550.098 275.63 550.555 275.732 551.027 275.777C551.49 275.812 551.952 275.812 552.414 275.777C552.643 275.777 552.891 275.737 553.096 275.705H553.177C553.125 276.372 553.192 277.048 553.382 277.693C553.516 278.12 553.721 278.52 553.992 278.885C554.269 279.245 554.612 279.561 555.003 279.81C555.766 280.281 556.643 280.57 557.554 280.65C558.431 280.743 559.317 280.708 560.18 280.539C559.322 280.539 558.464 280.445 557.63 280.259C556.824 280.094 556.066 279.765 555.413 279.298C555.108 279.071 554.846 278.796 554.636 278.489C554.426 278.178 554.264 277.844 554.159 277.488C553.988 276.759 553.964 276.003 554.088 275.265L554.178 274.665L553.535 274.816C553.358 274.856 553.144 274.896 552.939 274.927C552.734 274.958 552.529 274.981 552.319 274.994C551.909 275.025 551.494 275.025 551.084 274.994C550.279 274.958 549.502 274.714 548.839 274.283C548.524 274.056 548.257 273.78 548.057 273.46C547.843 273.131 547.681 272.771 547.58 272.397C547.375 271.615 547.29 270.814 547.328 270.01C547.113 270.819 547.066 271.659 547.18 272.486Z" fill="#4E4E4E"/>
<path d="M628.305 33.4011C627.78 32.9876 627.223 32.6097 626.66 32.2273C626.369 32.0538 626.069 31.8893 625.769 31.7248C625.468 31.5603 625.178 31.3869 624.858 31.249C624.229 30.96 623.585 30.7066 622.923 30.4887L622.446 30.3331C622.279 30.2797 622.107 30.2308 621.936 30.1952C621.593 30.1196 621.249 30.0396 620.901 29.9729C620.553 29.9062 620.196 29.8795 619.843 29.844C619.49 29.8084 619.133 29.8128 618.775 29.7995C618.418 29.7862 618.06 29.8351 617.707 29.8618C617.354 29.9062 617.002 29.9685 616.658 30.0529C615.967 30.1997 615.314 30.4843 614.751 30.8889C615.414 30.7777 616.086 30.7421 616.754 30.7822C616.916 30.7822 617.078 30.7822 617.23 30.8088L617.707 30.8444C618.031 30.8978 618.351 30.92 618.661 30.9778C618.971 31.0356 619.295 31.0845 619.614 31.1512C619.934 31.2179 620.239 31.2935 620.568 31.3646C621.183 31.5425 621.807 31.6937 622.412 31.9116C623.018 32.1294 623.628 32.3562 624.243 32.5518C624.858 32.7475 625.449 33.0365 626.064 33.2633C626.679 33.49 627.28 33.7746 627.9 34.0236C628.519 34.3037 629.158 34.5527 629.807 34.7706C629.33 34.2904 628.829 33.8324 628.305 33.4011Z" fill="#4E4E4E"/>
<path d="M591.902 35.3931C591.482 35.6332 591.082 35.9 590.677 36.1712C590.486 36.3135 590.3 36.4692 590.114 36.6159C589.928 36.7626 589.733 36.9183 589.566 37.0872C589.213 37.4163 588.884 37.7675 588.579 38.141L588.355 38.4211C588.274 38.5101 588.202 38.6079 588.141 38.7102C588.007 38.9147 587.874 39.1103 587.75 39.3149C587.626 39.5194 587.521 39.7595 587.416 39.9507C587.311 40.1419 587.235 40.3954 587.149 40.6177C587.063 40.84 587.015 41.0623 586.958 41.3069C586.911 41.5381 586.882 41.7738 586.863 42.0094C586.82 42.4807 586.887 42.9565 587.054 43.4012C587.12 42.961 587.244 42.5252 587.421 42.1117C587.459 42.0094 587.502 41.9116 587.549 41.8138L587.683 41.5159C587.793 41.3202 587.878 41.1246 587.993 40.9378C588.107 40.7511 588.207 40.5643 588.326 40.3776C588.446 40.1908 588.57 40.0174 588.694 39.8351C588.96 39.4838 589.208 39.1237 589.504 38.7902C589.8 38.4567 590.086 38.1188 590.376 37.7764C590.667 37.434 590.996 37.1272 591.301 36.7849C591.606 36.4425 591.945 36.1312 592.255 35.7977C592.565 35.4643 592.913 35.1352 593.208 34.7662C592.76 34.9529 592.326 35.1619 591.902 35.3931Z" fill="#4E4E4E"/>
<path d="M614.537 66.3892C613.989 66.0068 613.402 65.66 612.821 65.3088C612.516 65.1531 612.21 65.002 611.901 64.8641C611.591 64.7263 611.286 64.5618 610.947 64.4195C610.304 64.1616 609.641 63.9437 608.969 63.7658L608.459 63.6369C608.292 63.5924 608.115 63.5569 607.944 63.5302C607.591 63.4724 607.243 63.4101 606.895 63.3612C606.547 63.3123 606.185 63.3079 605.832 63.2901C605.479 63.2723 605.117 63.2901 604.764 63.2901C604.411 63.2901 604.049 63.3657 603.701 63.4101C603.348 63.4768 603.005 63.5569 602.662 63.6591C601.98 63.8459 601.346 64.166 600.807 64.5973C601.46 64.455 602.128 64.3794 602.8 64.3839H603.753C604.077 64.4195 604.397 64.4239 604.707 64.4639C605.017 64.5039 605.346 64.5351 605.66 64.584C605.975 64.6329 606.294 64.6951 606.614 64.7441C607.243 64.8952 607.872 65.0064 608.492 65.1887C609.112 65.371 609.731 65.5489 610.361 65.7267C610.99 65.9046 611.595 66.1447 612.225 66.3403C612.854 66.536 613.469 66.785 614.132 66.9984C614.794 67.2118 615.395 67.443 616.067 67.6342C615.581 67.194 615.071 66.7805 614.537 66.3892Z" fill="#4E4E4E"/>
<path d="M648.013 91.2982C647.536 91.1293 647.059 90.9959 646.583 90.8536C646.344 90.7958 646.106 90.7469 645.858 90.7024C645.61 90.6579 645.381 90.6046 645.124 90.5779C644.628 90.5157 644.123 90.4845 643.622 90.4845H643.245C643.117 90.4801 642.993 90.4801 642.864 90.4845L642.111 90.5557L641.362 90.6935C641.115 90.7469 640.886 90.8269 640.628 90.8981C640.371 90.9692 640.152 91.0759 639.923 91.1693C639.694 91.276 639.475 91.3961 639.26 91.525C638.826 91.774 638.459 92.1075 638.178 92.5032C638.597 92.2853 639.046 92.1164 639.508 92.0008C639.618 91.9652 639.727 91.9341 639.842 91.9118L640.18 91.8318C640.409 91.7962 640.657 91.7429 640.862 91.7118C641.067 91.6806 641.339 91.6495 641.544 91.6273C641.749 91.605 642.02 91.5873 642.23 91.5695C642.707 91.5695 643.15 91.525 643.617 91.5428C644.085 91.5606 644.547 91.5695 645.014 91.5784C645.481 91.5872 645.968 91.6495 646.444 91.6673C646.921 91.6851 647.398 91.7518 647.875 91.7873C648.351 91.8229 648.828 91.8763 649.343 91.8807C648.909 91.6628 648.466 91.4716 648.013 91.2982Z" fill="#4E4E4E"/>
<path d="M668.474 123.179C668.641 122.735 668.774 122.29 668.908 121.845C668.96 121.623 669.003 121.401 669.046 121.169C669.089 120.938 669.141 120.725 669.16 120.48C669.213 120.018 669.237 119.555 669.222 119.089V118.737C669.222 118.622 669.213 118.502 669.194 118.386C669.165 118.155 669.137 117.919 669.098 117.688C669.06 117.457 668.989 117.243 668.927 116.999C668.865 116.754 668.77 116.554 668.688 116.323C668.607 116.092 668.483 115.878 668.379 115.678C668.255 115.469 668.121 115.265 667.978 115.069C667.697 114.678 667.325 114.344 666.896 114.095C667.139 114.478 667.335 114.887 667.473 115.313C667.511 115.411 667.544 115.518 667.573 115.62L667.668 115.932C667.716 116.145 667.778 116.35 667.816 116.558C667.854 116.767 667.897 117.003 667.93 117.194C667.964 117.386 667.983 117.639 668.012 117.83C668.012 118.275 668.083 118.679 668.078 119.115C668.074 119.551 668.078 119.978 668.078 120.409C668.078 120.84 668.031 121.298 668.021 121.743C668.012 122.188 667.959 122.632 667.935 123.077C667.911 123.522 667.864 123.966 667.873 124.442C668.088 124.011 668.283 123.606 668.474 123.179Z" fill="#4E4E4E"/>
<path d="M653.629 114.1C653.629 113.655 653.629 113.184 653.576 112.721C653.576 112.494 653.514 112.277 653.476 112.036C653.438 111.796 653.405 111.592 653.343 111.356C653.233 110.903 653.09 110.458 652.914 110.022L652.78 109.693C652.737 109.582 652.689 109.475 652.632 109.373C652.518 109.16 652.413 108.928 652.294 108.742C652.175 108.555 652.032 108.337 651.893 108.137C651.755 107.937 651.588 107.759 651.417 107.572C651.245 107.385 651.073 107.221 650.897 107.052C650.711 106.892 650.511 106.745 650.306 106.607C649.901 106.318 649.438 106.114 648.942 106.007C649.3 106.301 649.619 106.63 649.896 106.985C649.967 107.07 650.034 107.159 650.101 107.252L650.296 107.514C650.415 107.701 650.544 107.879 650.654 108.066C650.763 108.253 650.883 108.439 650.983 108.63C651.083 108.822 651.183 109.017 651.283 109.209C651.455 109.604 651.65 109.991 651.793 110.405C651.936 110.818 652.089 111.223 652.27 111.632C652.451 112.041 652.527 112.468 652.67 112.89C652.813 113.313 652.918 113.744 653.052 114.175C653.166 114.615 653.309 115.056 653.471 115.482C653.552 115.024 653.605 114.562 653.629 114.1Z" fill="#4E4E4E"/>
<path d="M643.207 59.315C643.06 58.8703 642.878 58.4524 642.693 58.0255C642.588 57.8165 642.473 57.612 642.359 57.4075C642.249 57.1985 642.13 56.9939 642.001 56.7983C641.744 56.3981 641.453 56.0157 641.138 55.6556L640.9 55.3843C640.824 55.291 640.738 55.202 640.647 55.122C640.471 54.953 640.295 54.7841 640.113 54.6195C639.932 54.455 639.727 54.3172 639.527 54.1749C639.327 54.0326 639.108 53.9037 638.898 53.7703C638.688 53.6369 638.45 53.5391 638.226 53.4323C637.992 53.3345 637.754 53.2456 637.51 53.1745C637.029 53.0188 636.519 52.961 636.014 53.0099C636.457 53.1745 636.876 53.3923 637.267 53.6502C637.367 53.708 637.463 53.7703 637.553 53.8414L637.83 54.0326C638.006 54.1749 638.187 54.3038 638.359 54.4506C638.531 54.5973 638.698 54.7352 638.836 54.8952C638.974 55.0553 639.155 55.202 639.313 55.3399C639.613 55.6689 639.927 55.9757 640.209 56.3225C640.49 56.6694 640.767 57.0117 641.053 57.3541C641.339 57.6965 641.582 58.0744 641.863 58.4301C642.144 58.7859 642.392 59.1683 642.664 59.5373C642.936 59.9064 643.198 60.2932 643.508 60.6578C643.431 60.2043 643.331 59.7552 643.207 59.315Z" fill="#4E4E4E"/>
<path d="M619.376 94.2196C619.347 93.8238 619.285 93.4325 619.223 93.0412C619.185 92.8501 619.133 92.6544 619.085 92.4632C619.037 92.272 618.985 92.0764 618.913 91.8896C618.78 91.5072 618.623 91.1337 618.437 90.7691L618.294 90.4979C618.246 90.409 618.198 90.32 618.141 90.2311C618.027 90.0621 617.917 89.8843 617.803 89.7153C617.688 89.5463 617.545 89.3863 617.412 89.2262C617.278 89.0661 617.116 88.9238 616.973 88.7816C616.83 88.6393 616.649 88.5059 616.496 88.3725C616.325 88.248 616.144 88.1324 615.958 88.0257C615.591 87.8078 615.176 87.6655 614.742 87.6077C615.076 87.83 615.381 88.0879 615.648 88.3769C615.719 88.4436 615.786 88.5148 615.848 88.5904L616.039 88.7993C616.153 88.955 616.277 89.0973 616.387 89.244C616.496 89.3907 616.611 89.5463 616.711 89.6886C616.811 89.8309 616.911 90.0043 617.011 90.1599C617.192 90.489 617.388 90.8091 617.545 91.1515C617.702 91.4939 617.865 91.8318 618.022 92.1697C618.179 92.5077 618.308 92.8723 618.465 93.2235C618.623 93.5748 618.742 93.935 618.894 94.2951C619.032 94.6686 619.19 95.0333 619.371 95.389C619.395 94.9977 619.4 94.6108 619.371 94.2196H619.376Z" fill="#4E4E4E"/>
<path d="M667.173 150.147C667.01 149.524 666.796 148.911 666.581 148.297C666.457 147.999 666.319 147.701 666.181 147.408C666.052 147.105 665.904 146.808 665.742 146.519C665.423 145.941 665.061 145.38 664.66 144.847L664.35 144.447C664.25 144.309 664.145 144.18 664.026 144.055C663.797 143.811 663.549 143.557 663.33 143.313C663.111 143.068 662.82 142.868 662.558 142.628C662.296 142.388 662 142.214 661.724 142.014C661.447 141.814 661.118 141.654 660.818 141.481C660.508 141.325 660.188 141.183 659.864 141.063C659.211 140.805 658.501 140.68 657.791 140.698C658.396 140.969 658.959 141.307 659.478 141.703C659.612 141.792 659.736 141.89 659.855 141.992L660.227 142.286C660.455 142.503 660.703 142.695 660.918 142.912C661.132 143.13 661.366 143.357 661.576 143.571C661.786 143.784 661.991 144.015 662.2 144.255C662.582 144.736 662.992 145.198 663.344 145.705C663.697 146.212 664.055 146.714 664.422 147.221C664.789 147.728 665.089 148.27 665.447 148.791C665.804 149.311 666.105 149.867 666.448 150.409C666.791 150.952 667.115 151.503 667.511 152.045C667.435 151.41 667.32 150.774 667.173 150.147Z" fill="#4E4E4E"/>
<path d="M653.524 269.352C653.91 269.062 654.268 268.747 654.63 268.431C654.801 268.267 654.964 268.093 655.107 267.92C655.25 267.746 655.435 267.577 655.583 267.386C655.888 267.017 656.165 266.63 656.413 266.226L656.599 265.919C656.661 265.817 656.718 265.71 656.77 265.603C656.87 265.39 656.975 265.159 657.075 264.958C657.176 264.758 657.238 264.514 657.314 264.287C657.39 264.06 657.433 263.842 657.485 263.598C657.538 263.353 657.552 263.126 657.581 262.891C657.595 262.655 657.595 262.415 657.581 262.179C657.552 261.717 657.423 261.259 657.199 260.845C657.199 261.295 657.133 261.744 657.013 262.179C657.013 262.286 656.961 262.393 656.928 262.495L656.837 262.806C656.756 263.011 656.694 263.215 656.613 263.416C656.532 263.616 656.446 263.811 656.356 264.007C656.265 264.203 656.165 264.398 656.07 264.594C655.85 264.972 655.66 265.359 655.412 265.723C655.164 266.088 654.935 266.461 654.687 266.835C654.439 267.208 654.158 267.555 653.905 267.929C653.653 268.302 653.357 268.653 653.09 269.027C652.799 269.392 652.527 269.774 652.275 270.165C652.709 269.916 653.123 269.645 653.524 269.352Z" fill="#4E4E4E"/>
<path d="M623.909 293.891C624.386 294.043 624.863 294.163 625.34 294.278C625.583 294.323 625.816 294.363 626.074 294.398C626.331 294.434 626.551 294.478 626.813 294.492C627.313 294.536 627.814 294.549 628.314 294.532H628.691C628.82 294.532 628.944 294.518 629.072 294.501L629.821 294.398C630.069 294.345 630.298 294.292 630.565 294.229C630.832 294.167 631.041 294.078 631.284 294.003C631.528 293.927 631.761 293.802 631.98 293.7C632.205 293.589 632.419 293.46 632.629 293.322C633.048 293.055 633.401 292.709 633.663 292.304C633.253 292.535 632.82 292.722 632.362 292.855C632.252 292.895 632.143 292.927 632.028 292.958L631.694 293.051C631.466 293.091 631.246 293.153 631.017 293.193C630.789 293.233 630.569 293.278 630.341 293.304L629.654 293.389C629.177 293.42 628.739 293.469 628.272 293.469H626.875C626.431 293.469 625.921 293.433 625.445 293.433C624.968 293.433 624.491 293.385 624.014 293.371C623.538 293.358 623.061 293.318 622.546 293.331C622.989 293.545 623.442 293.731 623.909 293.891Z" fill="#4E4E4E"/>
<path d="M623.909 293.891C624.386 294.043 624.863 294.163 625.34 294.278C625.583 294.323 625.816 294.363 626.074 294.398C626.331 294.434 626.551 294.478 626.813 294.492C627.313 294.536 627.814 294.549 628.314 294.532H628.691C628.82 294.532 628.944 294.518 629.072 294.501L629.821 294.398C630.069 294.345 630.298 294.292 630.565 294.229C630.832 294.167 631.041 294.078 631.284 294.003C631.528 293.927 631.761 293.802 631.98 293.7C632.205 293.589 632.419 293.46 632.629 293.322C633.048 293.055 633.401 292.709 633.663 292.304C633.253 292.535 632.82 292.722 632.362 292.855C632.252 292.895 632.143 292.927 632.028 292.958L631.694 293.051C631.466 293.091 631.246 293.153 631.017 293.193C630.789 293.233 630.569 293.278 630.341 293.304L629.654 293.389C629.177 293.42 628.739 293.469 628.272 293.469H626.875C626.431 293.469 625.921 293.433 625.445 293.433C624.968 293.433 624.491 293.385 624.014 293.371C623.538 293.358 623.061 293.318 622.546 293.331C622.989 293.545 623.442 293.731 623.909 293.891Z" fill="#4E4E4E"/>
<path d="M692.821 260.788C692.821 260.343 692.821 259.872 692.773 259.409C692.744 259.182 692.706 258.965 692.668 258.725C692.63 258.484 692.596 258.28 692.534 258.044C692.425 257.591 692.282 257.146 692.11 256.71L691.977 256.381C691.934 256.27 691.886 256.163 691.824 256.061C691.715 255.848 691.605 255.616 691.49 255.43C691.376 255.243 691.223 255.025 691.085 254.829C690.947 254.634 690.78 254.447 690.608 254.26C690.437 254.074 690.26 253.909 690.089 253.74C689.898 253.58 689.703 253.433 689.498 253.295C689.097 253.006 688.63 252.802 688.134 252.695C688.492 252.984 688.811 253.313 689.088 253.673C689.164 253.758 689.231 253.842 689.293 253.936L689.493 254.198C689.607 254.389 689.741 254.563 689.851 254.749C689.96 254.936 690.075 255.123 690.175 255.314C690.275 255.505 690.375 255.701 690.475 255.892C690.647 256.292 690.842 256.679 690.99 257.088C691.138 257.497 691.285 257.906 691.438 258.315C691.591 258.724 691.695 259.156 691.843 259.574C691.991 259.992 692.086 260.427 692.225 260.859C692.339 261.308 692.477 261.757 692.639 262.193C692.725 261.726 692.787 261.259 692.821 260.788Z" fill="#4E4E4E"/>
<path d="M671.487 203.478C671.339 203.033 671.158 202.615 670.972 202.188C670.867 201.979 670.753 201.775 670.638 201.57C670.529 201.361 670.41 201.156 670.281 200.961C670.023 200.565 669.733 200.183 669.423 199.818L669.18 199.547C669.103 199.453 669.022 199.365 668.932 199.285C668.751 199.116 668.574 198.947 668.393 198.782C668.212 198.618 668.007 198.475 667.807 198.337C667.606 198.2 667.387 198.071 667.177 197.937C666.968 197.804 666.729 197.706 666.505 197.599C666.272 197.501 666.033 197.413 665.79 197.341C665.309 197.186 664.798 197.128 664.293 197.177C664.736 197.341 665.161 197.555 665.547 197.817C665.647 197.875 665.742 197.937 665.833 198.008L666.109 198.2C666.286 198.342 666.467 198.471 666.639 198.618C666.81 198.764 666.977 198.902 667.115 199.062C667.254 199.222 667.44 199.369 667.592 199.507C667.892 199.831 668.207 200.143 668.488 200.489C668.77 200.836 669.046 201.179 669.332 201.521C669.618 201.863 669.861 202.241 670.143 202.597C670.424 202.953 670.672 203.335 670.943 203.704C671.215 204.073 671.477 204.46 671.787 204.825C671.716 204.371 671.616 203.922 671.487 203.478Z" fill="#4E4E4E"/>
<path d="M685.975 231.886C685.946 231.494 685.884 231.103 685.822 230.712C685.784 230.516 685.731 230.325 685.684 230.129C685.636 229.934 685.584 229.743 685.512 229.556C685.379 229.173 685.221 228.8 685.035 228.44L684.892 228.169C684.85 228.075 684.797 227.986 684.74 227.902L684.401 227.382C684.273 227.217 684.144 227.052 684.011 226.897C683.877 226.741 683.715 226.59 683.572 226.452C683.429 226.314 683.248 226.172 683.095 226.039C682.924 225.914 682.742 225.799 682.556 225.692C682.189 225.474 681.775 225.332 681.341 225.274C681.675 225.496 681.98 225.754 682.247 226.043C682.318 226.11 682.385 226.181 682.447 226.257L682.638 226.47C682.752 226.621 682.876 226.763 682.986 226.915C683.095 227.066 683.21 227.221 683.31 227.359C683.41 227.497 683.51 227.675 683.61 227.835C683.791 228.164 683.987 228.48 684.144 228.822C684.301 229.165 684.463 229.502 684.621 229.845C684.778 230.187 684.907 230.543 685.064 230.894C685.221 231.245 685.341 231.61 685.493 231.97C685.631 232.339 685.789 232.704 685.97 233.06C685.994 232.668 685.998 232.277 685.97 231.886H685.975Z" fill="#4E4E4E"/>
<path d="M539.924 89.2929C540.205 88.9149 540.515 88.5548 540.825 88.1991C540.992 88.0256 541.164 87.8611 541.34 87.6966C541.516 87.5321 541.683 87.3587 541.874 87.2119C542.246 86.9007 542.642 86.6117 543.056 86.3493L543.371 86.1581C543.476 86.0914 543.581 86.0292 543.695 85.9758C543.919 85.8647 544.138 85.7491 544.363 85.6423L545.068 85.3667C545.306 85.2822 545.545 85.2244 545.798 85.1532C546.05 85.0821 546.274 85.0554 546.546 85.011C546.799 84.9798 547.051 84.962 547.309 84.962C547.819 84.9443 548.324 85.0287 548.796 85.2066C548.319 85.2466 547.847 85.34 547.395 85.4823C547.28 85.509 547.17 85.5445 547.061 85.5845L546.737 85.6957C546.522 85.7846 546.308 85.8558 546.098 85.9492C545.888 86.0425 545.683 86.1315 545.483 86.2337C545.283 86.336 545.078 86.4427 544.877 86.5405C544.487 86.7762 544.086 86.9852 543.709 87.2386C543.333 87.4921 542.961 87.7455 542.575 87.999C542.189 88.2524 541.845 88.5414 541.464 88.8082C541.083 89.075 540.725 89.3685 540.349 89.6486C539.972 89.9287 539.605 90.2222 539.19 90.489C539.409 90.0754 539.662 89.6842 539.924 89.2929Z" fill="#4E4E4E"/>
<path d="M537.645 127.074C537.479 126.63 537.345 126.185 537.212 125.74C537.159 125.514 537.112 125.287 537.069 125.06C537.031 124.833 536.978 124.615 536.959 124.375C536.907 123.913 536.883 123.446 536.897 122.979V122.632C536.897 122.517 536.907 122.397 536.926 122.281C536.959 122.045 536.988 121.814 537.026 121.583C537.064 121.352 537.135 121.138 537.197 120.894C537.259 120.649 537.35 120.449 537.431 120.218C537.512 119.987 537.636 119.773 537.746 119.569C537.87 119.36 538.003 119.16 538.146 118.964C538.427 118.568 538.794 118.235 539.228 117.986C538.985 118.368 538.79 118.777 538.651 119.204C538.608 119.306 538.575 119.409 538.547 119.515L538.451 119.827C538.408 120.036 538.346 120.24 538.308 120.454C538.27 120.667 538.222 120.872 538.194 121.085C538.165 121.298 538.141 121.53 538.113 121.721C538.113 122.165 538.041 122.575 538.046 123.006C538.051 123.437 538.046 123.868 538.046 124.304C538.046 124.74 538.098 125.193 538.103 125.638C538.108 126.083 538.17 126.527 538.194 126.972C538.218 127.417 538.26 127.861 538.256 128.337C538.027 127.928 537.822 127.506 537.645 127.074Z" fill="#4E4E4E"/>
<path d="M558.145 105.562C558.145 105.118 558.145 104.646 558.197 104.184C558.197 103.957 558.259 103.739 558.297 103.499C558.335 103.259 558.369 103.055 558.431 102.819C558.54 102.365 558.683 101.921 558.86 101.485L558.993 101.156C559.036 101.045 559.084 100.938 559.141 100.836C559.256 100.622 559.36 100.413 559.48 100.204C559.599 99.9955 559.742 99.7999 559.88 99.5998C560.018 99.3997 560.185 99.2218 560.357 99.0351C560.528 98.8483 560.705 98.6838 560.881 98.5148C561.067 98.3548 561.267 98.208 561.472 98.0702C561.878 97.7812 562.34 97.5766 562.836 97.4744C562.478 97.7634 562.159 98.0924 561.882 98.4526C561.811 98.5371 561.739 98.626 561.677 98.7149L561.482 98.9773C561.363 99.1685 561.234 99.3419 561.12 99.5286C561.005 99.7154 560.895 99.9021 560.795 100.093C560.695 100.285 560.595 100.48 560.495 100.671C560.323 101.072 560.128 101.454 559.985 101.867C559.842 102.281 559.689 102.686 559.532 103.095C559.375 103.504 559.275 103.935 559.132 104.353C558.989 104.771 558.884 105.207 558.75 105.638C558.617 106.069 558.502 106.527 558.331 106.95C558.24 106.492 558.178 106.029 558.145 105.562Z" fill="#4E4E4E"/>
<path d="M568.437 61.6672C568.79 61.347 569.171 61.0491 569.553 60.7779C569.748 60.64 569.953 60.5066 570.158 60.3777C570.363 60.2488 570.564 60.1109 570.783 59.9998C571.217 59.7596 571.665 59.5507 572.127 59.3684L572.475 59.235C572.59 59.1861 572.709 59.146 572.828 59.1105L573.557 58.9059L574.301 58.7636C574.554 58.7236 574.811 58.7103 575.064 58.6836C575.317 58.6569 575.574 58.6836 575.827 58.6836C576.084 58.7014 576.337 58.7281 576.589 58.7725C577.099 58.8437 577.586 59.0215 578.02 59.2839C577.543 59.235 577.066 59.235 576.589 59.2839C576.475 59.2839 576.356 59.3106 576.241 59.3283L575.898 59.3773C575.669 59.4262 575.421 59.4573 575.221 59.5106C575.021 59.564 574.773 59.6174 574.554 59.6796C574.334 59.7419 574.115 59.8086 573.896 59.8753C573.467 60.0309 573.033 60.1643 572.609 60.3466C572.184 60.5289 571.765 60.7112 571.336 60.889C570.907 61.0669 570.506 61.2892 570.077 61.4804C569.648 61.6716 569.238 61.8984 568.804 62.1029C568.38 62.3297 567.942 62.5342 567.493 62.721C567.789 62.3564 568.104 62.0051 568.437 61.6672Z" fill="#4E4E4E"/>
<path d="M587.878 87.6788C587.907 87.2875 587.969 86.8962 588.031 86.5005C588.074 86.3093 588.121 86.1137 588.174 85.9225C588.226 85.7313 588.269 85.5356 588.341 85.3489C588.474 84.9665 588.632 84.593 588.817 84.2328L588.956 83.9616C588.999 83.8682 589.051 83.7793 589.113 83.6948C589.223 83.5214 589.332 83.348 589.452 83.1746C589.571 83.0012 589.709 82.8455 589.842 82.6899C589.976 82.5343 590.133 82.3831 590.281 82.2453C590.429 82.1074 590.605 81.9696 590.758 81.8362C590.934 81.7117 591.115 81.5961 591.301 81.4894C591.668 81.2715 592.083 81.1292 592.517 81.0714C592.183 81.2937 591.878 81.5516 591.606 81.8406C591.535 81.9073 591.473 81.9785 591.411 82.0541L591.22 82.2675C591.106 82.4187 590.977 82.561 590.867 82.7121C590.758 82.8633 590.648 83.0189 590.543 83.1568C590.438 83.2946 590.343 83.4725 590.243 83.6326C590.062 83.9616 589.866 84.2773 589.709 84.6197C589.552 84.962 589.39 85.3 589.232 85.6424C589.075 85.9847 588.946 86.3404 588.789 86.6917C588.632 87.043 588.508 87.4076 588.36 87.7678C588.212 88.1279 588.079 88.4925 587.883 88.8571C587.859 88.4658 587.859 88.0701 587.883 87.6788H587.878Z" fill="#4E4E4E"/>
<path d="M560.834 149.849C560.233 149.538 559.656 149.182 559.079 148.822C558.798 148.631 558.526 148.426 558.259 148.222C557.992 148.017 557.711 147.821 557.463 147.595C556.953 147.15 556.476 146.674 556.033 146.172L555.704 145.789C555.585 145.665 555.48 145.531 555.385 145.394C555.194 145.118 554.994 144.847 554.803 144.571C554.612 144.295 554.464 143.989 554.326 143.682C554.188 143.375 554.05 143.073 553.916 142.766C553.783 142.459 553.702 142.134 553.606 141.819C553.53 141.494 553.473 141.165 553.435 140.836C553.344 140.182 553.406 139.515 553.616 138.884C553.735 139.498 553.935 140.093 554.207 140.663C554.264 140.805 554.326 140.943 554.403 141.076L554.607 141.485C554.77 141.752 554.903 142.019 555.084 142.277C555.265 142.535 555.413 142.792 555.59 143.041C555.766 143.29 555.952 143.535 556.128 143.784C556.529 144.255 556.891 144.749 557.325 145.202C557.759 145.656 558.178 146.092 558.602 146.572C559.027 147.052 559.513 147.461 559.956 147.906C560.4 148.351 560.91 148.795 561.387 149.24C561.863 149.684 562.34 150.129 562.817 150.632C562.14 150.405 561.477 150.147 560.834 149.849Z" fill="#4E4E4E"/>
<path d="M563.227 174.882C563.103 174.438 563.017 173.993 562.931 173.548C562.898 173.322 562.879 173.104 562.86 172.859C562.841 172.615 562.812 172.415 562.817 172.17C562.812 171.703 562.836 171.236 562.898 170.774L562.945 170.427C562.96 170.311 562.979 170.196 563.007 170.08C563.065 169.853 563.117 169.636 563.179 169.395C563.241 169.155 563.336 168.951 563.417 168.724C563.498 168.497 563.622 168.279 563.723 168.07C563.823 167.861 563.975 167.657 564.104 167.452C564.252 167.257 564.409 167.066 564.581 166.888C564.9 166.514 565.301 166.212 565.758 165.998C565.477 166.359 565.243 166.75 565.057 167.159C565.01 167.257 564.967 167.355 564.924 167.457L564.8 167.759C564.733 167.968 564.652 168.164 564.59 168.368C564.528 168.573 564.461 168.782 564.414 168.991C564.366 169.2 564.314 169.409 564.266 169.618C564.199 170.062 564.104 170.458 564.066 170.889C564.028 171.321 563.985 171.748 563.937 172.179C563.889 172.61 563.894 173.068 563.861 173.513C563.827 173.958 563.832 174.402 563.813 174.847C563.794 175.291 563.789 175.736 563.732 176.212C563.541 175.776 563.37 175.331 563.227 174.882Z" fill="#4E4E4E"/>
<path d="M525.737 169.658C525.694 169.018 525.708 168.373 525.737 167.728C525.737 167.408 525.799 167.088 525.837 166.768C525.875 166.448 525.908 166.123 525.98 165.807C526.109 165.167 526.275 164.536 526.49 163.913L526.657 163.468C526.709 163.317 526.771 163.166 526.848 163.024C526.991 162.721 527.129 162.419 527.277 162.134C527.424 161.85 527.62 161.556 527.801 161.272C527.982 160.987 528.201 160.725 528.406 160.454C528.611 160.182 528.883 159.947 529.102 159.702C529.355 159.467 529.617 159.244 529.899 159.035C530.447 158.613 531.081 158.302 531.767 158.124C531.276 158.551 530.843 159.026 530.471 159.547C530.375 159.667 530.285 159.796 530.204 159.925L529.942 160.303C529.789 160.574 529.622 160.823 529.465 161.094C529.307 161.365 529.179 161.628 529.045 161.899C528.912 162.17 528.793 162.45 528.664 162.721C528.449 163.291 528.187 163.842 528.025 164.42C527.863 164.998 527.663 165.58 527.472 166.163C527.281 166.745 527.167 167.35 526.995 167.942C526.824 168.533 526.705 169.151 526.547 169.76C526.39 170.369 526.256 170.992 526.071 171.614C525.923 170.97 525.808 170.316 525.737 169.658Z" fill="#4E4E4E"/>
<path d="M534.838 298.854C534.451 298.565 534.094 298.253 533.732 297.933C533.56 297.769 533.398 297.595 533.255 297.422C533.112 297.249 532.926 297.08 532.778 296.888C532.473 296.519 532.197 296.132 531.949 295.728L531.763 295.421C531.696 295.319 531.639 295.212 531.591 295.105C531.491 294.892 531.386 294.661 531.286 294.461C531.186 294.261 531.124 294.016 531.048 293.789C530.971 293.562 530.928 293.345 530.876 293.1C530.824 292.855 530.809 292.629 530.781 292.393C530.766 292.157 530.766 291.917 530.781 291.682C530.809 291.219 530.938 290.761 531.162 290.348C531.162 290.797 531.229 291.246 531.348 291.682C531.367 291.788 531.396 291.895 531.434 291.997L531.524 292.309C531.605 292.513 531.667 292.718 531.748 292.918C531.829 293.118 531.91 293.318 532.006 293.514C532.101 293.709 532.197 293.9 532.292 294.096C532.506 294.474 532.702 294.861 532.95 295.225C533.198 295.59 533.426 295.963 533.674 296.337C533.922 296.71 534.204 297.057 534.456 297.431C534.709 297.804 535 298.156 535.271 298.529C535.562 298.894 535.834 299.276 536.087 299.667C535.653 299.418 535.238 299.147 534.838 298.854Z" fill="#4E4E4E"/>
<path d="M553.687 316.293C553.211 316.439 552.734 316.559 552.257 316.675C552.014 316.719 551.78 316.759 551.523 316.795C551.266 316.831 551.046 316.875 550.779 316.893C550.279 316.933 549.778 316.946 549.278 316.933H548.901C548.777 316.933 548.648 316.92 548.524 316.902C548.272 316.866 548.024 316.84 547.771 316.799C547.518 316.759 547.294 316.693 547.032 316.631C546.77 316.568 546.555 316.479 546.308 316.404C546.06 316.328 545.831 316.204 545.616 316.106C545.392 315.99 545.178 315.861 544.968 315.723C544.548 315.457 544.196 315.11 543.929 314.705C544.339 314.936 544.777 315.123 545.235 315.257C545.345 315.297 545.454 315.328 545.569 315.359L545.898 315.452C546.131 315.497 546.35 315.554 546.575 315.594C546.799 315.635 547.051 315.679 547.256 315.706L547.938 315.79C548.415 315.821 548.858 315.87 549.321 315.875C549.783 315.879 550.274 315.875 550.722 315.875C551.17 315.875 551.676 315.844 552.152 315.839C552.629 315.835 553.106 315.79 553.582 315.777C554.059 315.763 554.536 315.723 555.056 315.737C554.612 315.946 554.155 316.128 553.687 316.293Z" fill="#4E4E4E"/>
<path d="M491.999 193.606C491.827 193.162 491.694 192.717 491.565 192.272C491.508 192.05 491.465 191.828 491.422 191.597C491.369 191.37 491.336 191.143 491.312 190.912C491.255 190.449 491.236 189.983 491.246 189.516V189.164C491.246 189.049 491.255 188.933 491.274 188.818C491.307 188.582 491.336 188.373 491.369 188.115C491.403 187.857 491.479 187.67 491.541 187.426C491.603 187.181 491.698 186.981 491.779 186.754C491.86 186.528 491.984 186.31 492.089 186.105C492.208 185.896 492.347 185.692 492.495 185.501C492.776 185.105 493.143 184.771 493.577 184.522C493.334 184.905 493.138 185.314 492.995 185.741C492.957 185.843 492.924 185.945 492.895 186.052L492.8 186.359C492.757 186.572 492.695 186.777 492.652 186.99C492.609 187.204 492.571 187.408 492.542 187.622C492.514 187.835 492.485 188.066 492.461 188.257C492.461 188.702 492.385 189.111 492.39 189.542C492.394 189.974 492.39 190.405 492.39 190.841C492.39 191.276 492.437 191.73 492.447 192.175C492.456 192.619 492.514 193.064 492.533 193.509C492.58 193.962 492.599 194.42 492.595 194.874C492.371 194.46 492.17 194.038 491.999 193.606Z" fill="#4E4E4E"/>
<path d="M541.66 260.788C541.66 260.343 541.66 259.872 541.707 259.409C541.736 259.182 541.774 258.965 541.812 258.725C541.85 258.484 541.884 258.28 541.946 258.044C542.055 257.591 542.198 257.146 542.37 256.71L542.503 256.381C542.546 256.27 542.594 256.163 542.656 256.061C542.766 255.848 542.875 255.616 542.99 255.43C543.104 255.243 543.257 255.025 543.395 254.829C543.533 254.634 543.7 254.447 543.872 254.26C544.043 254.074 544.22 253.909 544.391 253.74C544.582 253.58 544.777 253.433 544.982 253.295C545.383 253.006 545.85 252.802 546.346 252.695C545.988 252.984 545.669 253.313 545.392 253.673C545.316 253.758 545.249 253.842 545.187 253.936L544.987 254.198C544.873 254.389 544.739 254.563 544.63 254.749C544.52 254.936 544.406 255.123 544.305 255.314C544.205 255.505 544.105 255.701 544.005 255.892C543.833 256.292 543.638 256.679 543.49 257.088C543.342 257.497 543.195 257.906 543.042 258.315C542.89 258.724 542.785 259.156 542.637 259.574C542.489 259.992 542.394 260.427 542.255 260.859C542.141 261.308 542.003 261.757 541.841 262.193C541.755 261.726 541.693 261.259 541.66 260.788Z" fill="#4E4E4E"/>
<path d="M513.084 236.119C513.113 235.723 513.175 235.332 513.237 234.941C513.28 234.749 513.328 234.554 513.38 234.362C513.432 234.171 513.475 233.976 513.547 233.789C513.68 233.406 513.838 233.033 514.024 232.668L514.162 232.397C514.209 232.308 514.257 232.219 514.314 232.135C514.429 231.961 514.538 231.784 514.653 231.615C514.767 231.446 514.915 231.286 515.049 231.125C515.182 230.965 515.339 230.823 515.487 230.681C515.635 230.539 515.811 230.405 515.964 230.272C516.14 230.147 516.321 230.032 516.507 229.925C516.874 229.707 517.289 229.565 517.723 229.507C517.389 229.729 517.084 229.987 516.812 230.276C516.741 230.343 516.679 230.414 516.617 230.49L516.426 230.703C516.312 230.854 516.183 230.997 516.073 231.148C515.964 231.299 515.854 231.455 515.749 231.592C515.644 231.73 515.549 231.908 515.449 232.064C515.268 232.397 515.072 232.713 514.915 233.055C514.758 233.398 514.596 233.736 514.438 234.073C514.281 234.411 514.152 234.776 513.99 235.127C513.828 235.479 513.714 235.839 513.566 236.203C513.418 236.568 513.285 236.928 513.089 237.293C513.065 236.901 513.065 236.51 513.089 236.119H513.084Z" fill="#4E4E4E"/>
</svg>
