<?xml version="1.0" encoding="UTF-8"?><!DOCTYPE svg PUBLIC "-//W3C//DTD SVG 1.1//EN" "http://www.w3.org/Graphics/SVG/1.1/DTD/svg11.dtd"><svg xmlns="http://www.w3.org/2000/svg" xmlns:xlink="http://www.w3.org/1999/xlink"><symbol id="icon-quote" viewBox="0 0 44 34">
<path opacity="0.5" d="M15.9948 34H0V22.7599C0 18.2116 0.398448 14.6327 1.19534 12.023C2.03019 9.3761 3.54808 7.00877 5.74903 4.92105C7.94998 2.83333 10.7581 1.19298 14.1734 0L17.304 6.48684C14.1164 7.5307 11.8206 8.98465 10.4166 10.8487C9.05045 12.7127 8.32945 15.1919 8.25356 18.2862H15.9948V34ZM42.6908 34H26.696V22.7599C26.696 18.1743 27.0944 14.5768 27.8913 11.9671C28.7262 9.35746 30.2441 7.00877 32.445 4.92105C34.6839 2.83333 37.492 1.19298 40.8693 0L44 6.48684C40.8124 7.5307 38.5166 8.98465 37.1125 10.8487C35.7464 12.7127 35.0254 15.1919 34.9495 18.2862H42.6908V34Z"/>
</symbol></svg>