<svg width="133" height="25" viewBox="0 0 133 25" fill="none" xmlns="http://www.w3.org/2000/svg">
<g opacity="0.4">
<path d="M14.7141 3.71182C14.8447 3.39556 14.9169 3.04998 14.9169 2.6859C14.9169 1.20179 13.7199 0 12.2418 0C11.2799 0 10.4378 0.512188 9.96765 1.27738C11.8438 1.48565 13.5079 2.38507 14.7141 3.71182Z" fill="#4A4A4A"/>
<path d="M5.38096 18.9493V15.4195C3.54631 14.3659 2.19414 12.567 1.73624 10.4319C0.722111 10.8191 0.00146484 11.8003 0.00146484 12.9543V24.8858H0.0291229C0.54387 22.0317 2.64281 19.7377 5.3825 18.9493H5.38096Z" fill="#4A4A4A"/>
<path d="M2.69053 3.4541C1.21236 3.4541 0.0153809 4.65589 0.0153809 6.14C0.0153809 7.223 0.656126 8.15327 1.57499 8.57906C1.63645 6.66299 2.40166 4.92895 3.62322 3.62535C3.33281 3.51581 3.01936 3.4541 2.69053 3.4541Z" fill="#4A4A4A"/>
<path d="M5.381 15.4195V12.9543C5.381 11.4624 4.17633 10.2529 2.69048 10.2529C2.35397 10.2529 2.03283 10.3177 1.73474 10.4319C2.19264 12.5686 3.54634 14.3659 5.37946 15.4195H5.381Z" fill="#4A4A4A" fill-opacity="0.5"/>
<path d="M5.36564 6.14014C5.36564 4.98618 4.64039 4.00654 3.62319 3.62549C2.40162 4.9291 1.63641 6.66313 1.57495 8.57921C1.91453 8.73656 2.29252 8.82604 2.69049 8.82604C4.16713 8.82604 5.36564 7.62425 5.36564 6.14014Z" fill="#4A4A4A" fill-opacity="0.5"/>
<path d="M12.2418 6.80957C10.7559 6.80957 9.55127 8.01907 9.55127 9.5109V16.4023C11.7101 16.282 13.6278 15.2622 14.9308 13.6994V9.51244C14.9308 8.02062 13.7261 6.81111 12.2402 6.81111L12.2418 6.80957Z" fill="#4A4A4A" fill-opacity="0.5"/>
<path d="M12.2418 5.37176C13.3573 5.37176 14.3115 4.68679 14.7141 3.71178C13.5079 2.38348 11.8438 1.48407 9.96769 1.27734C9.7157 1.68771 9.56665 2.16904 9.56665 2.68586C9.56665 4.16843 10.7636 5.37176 12.2418 5.37176Z" fill="#4A4A4A" fill-opacity="0.5"/>
<path d="M5.38108 18.9495C2.6414 19.7378 0.542457 22.0318 0.02771 24.8859H5.38108V18.9495Z" fill="#4A4A4A" fill-opacity="0.75"/>
<path d="M9.55127 18.9495V24.8859H14.9046C14.3899 22.0318 12.291 19.7378 9.55127 18.9495Z" fill="#4A4A4A" fill-opacity="0.75"/>
<path d="M9.55127 16.4024V18.9495C12.2894 19.7378 14.3899 22.0318 14.9046 24.8859H14.9308V13.698C13.6278 15.2608 11.7101 16.2805 9.55127 16.4009V16.4024Z" fill="#4A4A4A"/>
<path d="M39.4404 0.917836C39.9106 1.41305 40.1457 2.05175 40.1457 2.83391V22.2029C40.1457 23.0082 39.9106 23.6593 39.4404 24.1529C38.9702 24.6482 38.3571 24.895 37.6011 24.895C36.776 24.895 36.1107 24.5957 35.6067 23.9971L24.0871 9.18535V22.2014C24.0871 23.0067 23.8643 23.6577 23.4171 24.1514C22.97 24.6466 22.3677 24.8935 21.6117 24.8935C20.8557 24.8935 20.2472 24.6466 19.7893 24.1514C19.3299 23.6562 19.101 23.0067 19.101 22.2014V2.83391C19.101 2.05175 19.336 1.41305 19.8062 0.917836C20.2764 0.422619 20.8895 0.175781 21.6455 0.175781C22.4937 0.175781 23.1467 0.475072 23.6061 1.07365L35.1257 15.7821V2.83391C35.1257 2.05175 35.3547 1.41305 35.8141 0.917836C36.272 0.422619 36.8682 0.175781 37.6027 0.175781C38.3371 0.175781 38.9717 0.424161 39.4419 0.917836H39.4404Z" fill="#4A4A4A"/>
<path d="M49.4496 23.4805C47.6611 22.4685 46.2858 21.0183 45.3224 19.13C44.359 17.2432 43.8781 15.034 43.8781 12.5009C43.8781 9.96769 44.359 7.76466 45.3224 5.8887C46.2858 4.01273 47.6611 2.56874 49.4496 1.55516C51.2382 0.544669 53.3248 0.0371094 55.7096 0.0371094C58.712 0.0371094 61.3026 0.865558 63.4815 2.52245C63.8257 2.7986 64.0654 3.07475 64.2037 3.3509C64.342 3.62705 64.4096 3.97262 64.4096 4.38608C64.4096 4.98466 64.2436 5.49684 63.9117 5.92264C63.5798 6.34843 63.1726 6.56133 62.6902 6.56133C62.369 6.56133 62.0878 6.52122 61.8481 6.441C61.6084 6.36077 61.338 6.21576 61.0399 6.00903C60.1226 5.41045 59.2744 4.98003 58.4953 4.71468C57.7163 4.45087 56.8789 4.3182 55.9846 4.3182C53.7843 4.3182 52.1278 5.00317 51.0154 6.37312C49.9029 7.74306 49.3482 9.78564 49.3482 12.5024C49.3482 17.9806 51.5609 20.7205 55.9846 20.7205C56.8328 20.7205 57.6349 20.5879 58.3924 20.3241C59.1484 20.0603 60.0319 19.6283 61.0399 19.0297C61.3841 18.823 61.6699 18.6795 61.8988 18.5977C62.1278 18.5175 62.3921 18.4774 62.6902 18.4774C63.1711 18.4774 63.5783 18.6903 63.9117 19.1161C64.2436 19.5419 64.4096 20.0541 64.4096 20.6527C64.4096 21.0677 64.3358 21.4179 64.1868 21.7063C64.0377 21.9948 63.8026 22.2648 63.4815 22.5178C61.3026 24.1747 58.712 25.0047 55.7096 25.0047C53.3248 25.0047 51.2397 24.4987 49.4512 23.4851L49.4496 23.4805Z" fill="#4A4A4A"/>
<path d="M88.6564 0.900866C89.1374 1.38374 89.3786 2.0286 89.3786 2.83391V22.2029C89.3786 23.0082 89.1374 23.6593 88.6564 24.1529C88.1755 24.6482 87.5332 24.895 86.7311 24.895C85.929 24.895 85.2929 24.6528 84.8227 24.1699C84.3525 23.687 84.1174 23.0314 84.1174 22.2014V14.4677H72.9405V22.2014C72.9405 23.0067 72.6993 23.6577 72.2183 24.1514C71.7374 24.6466 71.1059 24.8935 70.3268 24.8935C69.5478 24.8935 68.8824 24.6513 68.4015 24.1684C67.9206 23.6855 67.6793 23.0298 67.6793 22.1998V2.83391C67.6793 2.0286 67.9206 1.38374 68.4015 0.900866C68.8824 0.41799 69.5247 0.175781 70.3268 0.175781C71.1289 0.175781 71.765 0.41799 72.2352 0.900866C72.7054 1.38374 72.9405 2.0286 72.9405 2.83391V10.1881H84.1174V2.83391C84.1174 2.0286 84.3525 1.38374 84.8227 0.900866C85.2929 0.41799 85.929 0.175781 86.7311 0.175781C87.5332 0.175781 88.1755 0.41799 88.6564 0.900866Z" fill="#4A4A4A"/>
<path d="M94.7535 24.0343C94.3171 23.5977 94.1005 22.976 94.1005 22.1691V2.86799C94.1005 2.06269 94.3187 1.44097 94.7535 1.00283C95.1883 0.566236 95.8076 0.347168 96.6112 0.347168H108.785C110.482 0.347168 111.33 1.03831 111.33 2.41906C111.33 3.79981 110.482 4.52489 108.785 4.52489H99.3278V10.2222H108.097C109.793 10.2222 110.642 10.9242 110.642 12.328C110.642 13.7319 109.793 14.3999 108.097 14.3999H99.3278V20.5107H108.785C110.482 20.5107 111.33 21.2126 111.33 22.6165C111.33 24.0204 110.482 24.6884 108.785 24.6884H96.6112C95.8091 24.6884 95.1899 24.4694 94.7535 24.0328V24.0343Z" fill="#4A4A4A"/>
<path d="M118.145 24.3614C116.585 23.9356 115.313 23.3324 114.328 22.5487C113.984 22.2957 113.738 22.0257 113.589 21.7372C113.44 21.4503 113.366 21.0877 113.366 20.6496C113.366 20.0741 113.544 19.5681 113.899 19.13C114.254 18.6934 114.661 18.4743 115.121 18.4743C115.373 18.4743 115.618 18.5144 115.86 18.5947C116.101 18.6749 116.393 18.8199 116.737 19.0266C117.722 19.6483 118.719 20.1034 119.729 20.3904C120.737 20.6789 121.849 20.8224 123.065 20.8224C124.578 20.8224 125.735 20.5694 126.537 20.0633C127.339 19.5573 127.74 18.8322 127.74 17.8881C127.74 17.1753 127.367 16.5999 126.623 16.1618C125.878 15.7252 124.554 15.3102 122.651 14.9183C120.519 14.4817 118.818 13.951 117.544 13.3293C116.271 12.7076 115.343 11.9362 114.758 11.0167C114.174 10.0957 113.881 8.98034 113.881 7.66747C113.881 6.2173 114.299 4.9106 115.136 3.74893C115.973 2.58725 117.13 1.67704 118.609 1.02137C120.087 0.365712 121.755 0.0371094 123.612 0.0371094C126.868 0.0371094 129.549 0.854758 131.659 2.48851C132.003 2.76466 132.249 3.04698 132.398 3.33547C132.547 3.62397 132.62 3.97417 132.62 4.38916C132.62 4.9646 132.442 5.47062 132.087 5.90875C131.732 6.34689 131.325 6.56441 130.867 6.56441C130.615 6.56441 130.38 6.53048 130.162 6.46105C129.944 6.39163 129.64 6.24198 129.251 6.01212C128.31 5.41354 127.445 4.9646 126.654 4.66531C125.863 4.36602 124.859 4.21637 123.645 4.21637C122.247 4.21637 121.147 4.4879 120.345 5.02785C119.543 5.56935 119.142 6.31141 119.142 7.25402C119.142 7.80632 119.297 8.26142 119.606 8.61779C119.915 8.97417 120.431 9.29043 121.153 9.56812C121.875 9.84427 122.902 10.1328 124.231 10.4305C127.349 11.1217 129.59 12.0072 130.953 13.0886C132.316 14.1701 133 15.6557 133 17.5425C133 19.0158 132.593 20.3163 131.778 21.4441C130.964 22.5718 129.818 23.4465 128.34 24.0683C126.861 24.69 125.147 25.0001 123.198 25.0001C121.387 25.0001 119.703 24.7872 118.143 24.3614H118.145Z" fill="#4A4A4A"/>
</g>
</svg>
