<svg width="268" height="50" viewBox="0 0 268 50" fill="none" xmlns="http://www.w3.org/2000/svg">
<path d="M29.6494 7.42363C29.9126 6.79111 30.0581 6.09997 30.0581 5.3718C30.0581 2.40358 27.6462 0 24.6676 0C22.7294 0 21.0327 1.02438 20.0852 2.55477C23.8657 2.97131 27.2189 4.77013 29.6494 7.42363Z" fill="white"/>
<path d="M10.8429 37.8988V30.8393C7.14604 28.7319 4.42137 25.1342 3.49869 20.864C1.45518 21.6384 0.00305176 23.6008 0.00305176 25.9087V49.7717H0.0587838C1.09602 44.0636 5.32546 39.4755 10.846 37.8988H10.8429Z" fill="white"/>
<path d="M5.4216 6.90839C2.44303 6.90839 0.0310669 9.31196 0.0310669 12.2802C0.0310669 14.4462 1.32219 16.3067 3.17374 17.1583C3.29758 13.3262 4.83951 9.85809 7.301 7.25087C6.71582 7.03181 6.08419 6.90839 5.4216 6.90839Z" fill="white"/>
<path d="M10.8429 30.8393V25.9087C10.8429 22.925 8.41551 20.506 5.42146 20.506C4.74338 20.506 4.09627 20.6356 3.49561 20.864C4.41828 25.1373 7.14605 28.7319 10.8399 30.8393H10.8429Z" fill="white" fill-opacity="0.5"/>
<path d="M10.812 12.2802C10.812 9.97224 9.35062 8.01296 7.30091 7.25085C4.83941 9.85807 3.29749 13.3261 3.17365 17.1583C3.85791 17.473 4.61958 17.652 5.42151 17.652C8.39698 17.652 10.812 15.2484 10.812 12.2802Z" fill="white" fill-opacity="0.5"/>
<path d="M24.6676 13.6193C21.6735 13.6193 19.2461 16.0383 19.2461 19.0219V32.8047C23.5963 32.564 27.4604 30.5245 30.086 27.399V19.025C30.086 16.0414 27.6585 13.6223 24.6645 13.6223L24.6676 13.6193Z" fill="white" fill-opacity="0.5"/>
<path d="M24.6676 10.7436C26.9155 10.7436 28.8382 9.37363 29.6495 7.42362C27.2189 4.76703 23.8657 2.9682 20.0852 2.55475C19.5774 3.37548 19.2771 4.33815 19.2771 5.37178C19.2771 8.33691 21.6891 10.7436 24.6676 10.7436Z" fill="white" fill-opacity="0.5"/>
<path d="M10.843 37.8988C5.3224 39.4755 1.09296 44.0636 0.0557251 49.7717H10.843V37.8988Z" fill="white" fill-opacity="0.75"/>
<path d="M19.2461 37.8988V49.7717H30.0333C28.9961 44.0636 24.7667 39.4755 19.2461 37.8988Z" fill="white" fill-opacity="0.75"/>
<path d="M19.2461 32.8047V37.8988C24.7636 39.4755 28.9961 44.0636 30.0333 49.7717H30.086V27.3959C27.4604 30.5215 23.5963 32.5609 19.2461 32.8016V32.8047Z" fill="white"/>
<path d="M79.4739 1.83586C80.4213 2.82629 80.895 4.10367 80.895 5.66801V44.4061C80.895 46.0167 80.4213 47.3187 79.4739 48.3061C78.5264 49.2965 77.291 49.7902 75.7677 49.7902C74.105 49.7902 72.7644 49.1916 71.7488 47.9945L48.5364 18.3709V44.403C48.5364 46.0136 48.0874 47.3156 47.1864 48.303C46.2854 49.2934 45.0717 49.7871 43.5484 49.7871C42.025 49.7871 40.7989 49.2934 39.8762 48.303C38.9505 47.3126 38.4891 46.0136 38.4891 44.403V5.66801C38.4891 4.10367 38.9629 2.82629 39.9103 1.83586C40.8577 0.84542 42.0931 0.351746 43.6165 0.351746C45.3256 0.351746 46.6415 0.950326 47.5673 2.14749L70.7797 31.5643V5.66801C70.7797 4.10367 71.241 2.82629 72.1668 1.83586C73.0895 0.84542 74.2908 0.351746 75.7708 0.351746C77.2508 0.351746 78.5295 0.848506 79.477 1.83586H79.4739Z" fill="white"/>
<path d="M99.6427 46.9608C96.0387 44.9367 93.2676 42.0364 91.3262 38.2598C89.3849 34.4863 88.4158 30.0679 88.4158 25.0015C88.4158 19.9352 89.3849 15.5291 91.3262 11.7772C93.2676 8.02528 96.0387 5.13729 99.6427 3.11014C103.247 1.08915 107.451 0.0740356 112.257 0.0740356C118.307 0.0740356 123.527 1.73093 127.917 5.04472C128.611 5.59702 129.094 6.14932 129.373 6.70162C129.651 7.25392 129.788 7.94506 129.788 8.77197C129.788 9.96913 129.453 10.9935 128.784 11.8451C128.116 12.6967 127.295 13.1225 126.323 13.1225C125.676 13.1225 125.109 13.0423 124.626 12.8818C124.143 12.7214 123.598 12.4313 122.998 12.0179C121.149 10.8207 119.44 9.95987 117.87 9.42917C116.3 8.90156 114.613 8.63621 112.811 8.63621C108.377 8.63621 105.039 10.0062 102.798 12.7461C100.556 15.4859 99.4383 19.5711 99.4383 25.0046C99.4383 35.9611 103.897 41.4409 112.811 41.4409C114.52 41.4409 116.136 41.1755 117.663 40.6479C119.186 40.1203 120.966 39.2564 122.998 38.0592C123.691 37.6458 124.267 37.3588 124.728 37.1953C125.19 37.0349 125.722 36.9546 126.323 36.9546C127.292 36.9546 128.112 37.3804 128.784 38.232C129.453 39.0836 129.788 40.108 129.788 41.3051C129.788 42.1351 129.639 42.8355 129.339 43.4125C129.038 43.9895 128.565 44.5295 127.917 45.0355C123.527 48.3493 118.307 50.0092 112.257 50.0092C107.451 50.0092 103.25 48.9972 99.6458 46.9701L99.6427 46.9608Z" fill="white"/>
<path d="M178.646 1.80192C179.615 2.76767 180.101 4.05739 180.101 5.66801V44.4061C180.101 46.0167 179.615 47.3187 178.646 48.3061C177.677 49.2965 176.383 49.7902 174.766 49.7902C173.15 49.7902 171.868 49.3058 170.921 48.34C169.973 47.3743 169.5 46.0629 169.5 44.403V28.9355H146.978V44.403C146.978 46.0136 146.492 47.3156 145.523 48.303C144.553 49.2934 143.281 49.7871 141.711 49.7871C140.141 49.7871 138.801 49.3027 137.832 48.3369C136.862 47.3712 136.376 46.0599 136.376 44.3999V5.66801C136.376 4.05739 136.862 2.76767 137.832 1.80192C138.801 0.836164 140.095 0.351746 141.711 0.351746C143.327 0.351746 144.609 0.836164 145.557 1.80192C146.504 2.76767 146.978 4.05739 146.978 5.66801V20.3764H169.5V5.66801C169.5 4.05739 169.973 2.76767 170.921 1.80192C171.868 0.836164 173.15 0.351746 174.766 0.351746C176.383 0.351746 177.677 0.836164 178.646 1.80192Z" fill="white"/>
<path d="M190.932 48.0685C190.053 47.1953 189.616 45.9519 189.616 44.3382V5.73587C189.616 4.12525 190.056 2.88181 190.932 2.00554C191.808 1.13235 193.056 0.694214 194.675 0.694214H219.207C222.625 0.694214 224.334 2.0765 224.334 4.838C224.334 7.59949 222.625 9.04966 219.207 9.04966H200.149V20.4443H217.819C221.238 20.4443 222.947 21.8482 222.947 24.656C222.947 27.4637 221.238 28.7997 217.819 28.7997H200.149V41.0213H219.207C222.625 41.0213 224.334 42.4252 224.334 45.2329C224.334 48.0407 222.625 49.3767 219.207 49.3767H194.675C193.059 49.3767 191.811 48.9386 190.932 48.0654V48.0685Z" fill="white"/>
<path d="M238.066 48.7226C234.923 47.871 232.359 46.6646 230.375 45.0972C229.681 44.5912 229.186 44.0512 228.885 43.4742C228.585 42.9003 228.436 42.1752 228.436 41.299C228.436 40.1481 228.796 39.1361 229.511 38.2598C230.226 37.3866 231.047 36.9485 231.972 36.9485C232.48 36.9485 232.975 37.0287 233.462 37.1891C233.948 37.3496 234.536 37.6396 235.23 38.0531C237.214 39.2965 239.224 40.2067 241.258 40.7806C243.289 41.3576 245.531 41.6445 247.98 41.6445C251.03 41.6445 253.361 41.1385 254.977 40.1265C256.593 39.1145 257.402 37.6643 257.402 35.776C257.402 34.3505 256.649 33.1996 255.151 32.3233C253.649 31.4502 250.98 30.6202 247.147 29.8365C242.849 28.9633 239.422 27.9019 236.855 26.6584C234.291 25.415 232.421 23.8722 231.242 22.0333C230.065 20.1913 229.474 17.9605 229.474 15.3348C229.474 12.4344 230.316 9.82103 232.003 7.49767C233.691 5.17431 236.022 3.35389 239.001 2.04256C241.979 0.73124 245.342 0.0740356 249.082 0.0740356C255.643 0.0740356 261.046 1.70933 265.297 4.97684C265.991 5.52914 266.486 6.09378 266.786 6.67076C267.087 7.24775 267.235 7.94815 267.235 8.77814C267.235 9.92902 266.876 10.9411 266.161 11.8173C265.446 12.6936 264.625 13.1286 263.702 13.1286C263.195 13.1286 262.721 13.0608 262.281 12.9219C261.842 12.7831 261.229 12.4838 260.445 12.0241C258.55 10.8269 256.807 9.92902 255.213 9.33044C253.618 8.73186 251.596 8.43257 249.15 8.43257C246.333 8.43257 244.116 8.97561 242.499 10.0555C240.883 11.1385 240.075 12.6226 240.075 14.5079C240.075 15.6124 240.388 16.5227 241.01 17.2354C241.633 17.9481 242.673 18.5807 244.128 19.1361C245.583 19.6884 247.652 20.2653 250.33 20.8608C256.612 22.2431 261.129 24.0142 263.876 26.1771C266.622 28.34 268 31.3113 268 35.0848C268 38.0315 267.179 40.6325 265.538 42.888C263.897 45.1435 261.588 46.8929 258.609 48.1364C255.631 49.3798 252.175 50 248.249 50C244.599 50 241.205 49.5742 238.063 48.7226H238.066Z" fill="white"/>
</svg>
