<svg width="154" height="64" viewBox="0 0 154 64" fill="none" xmlns="http://www.w3.org/2000/svg">
<path d="M92.3167 38.3956V31.2435C88.6318 29.1085 85.9159 25.4637 84.9963 21.1375C82.9594 21.9221 81.512 23.9101 81.512 26.2483V50.4242H81.5675C82.6014 44.6412 86.8171 39.993 92.3197 38.3956H92.3167Z" fill="white"/>
<path d="M86.9128 6.9989C83.9439 6.9989 81.5397 9.43399 81.5397 12.4411C81.5397 14.6355 82.8267 16.5204 84.6722 17.3832C84.7956 13.5008 86.3326 9.98728 88.7861 7.34588C88.2028 7.12394 87.5732 6.9989 86.9128 6.9989Z" fill="white"/>
<path d="M92.3167 31.2435V26.2483C92.3167 23.2256 89.8971 20.7748 86.9128 20.7748C86.2369 20.7748 85.5919 20.9061 84.9932 21.1374C85.9128 25.4668 88.6318 29.1085 92.3136 31.2435H92.3167Z" fill="white" fill-opacity="0.5"/>
<path d="M92.2858 12.4411C92.2858 10.1029 90.8292 8.11799 88.7861 7.34589C86.3326 9.98729 84.7957 13.5008 84.6722 17.3832C85.3543 17.702 86.1135 17.8833 86.9128 17.8833C89.8786 17.8833 92.2858 15.4483 92.2858 12.4411Z" fill="white" fill-opacity="0.5"/>
<path d="M106.096 13.7978C103.112 13.7978 100.693 16.2485 100.693 19.2713V33.2347C105.029 32.9909 108.88 30.9247 111.497 27.7581V19.2744C111.497 16.2516 109.078 13.8009 106.093 13.8009L106.096 13.7978Z" fill="white" fill-opacity="0.5"/>
<path d="M106.096 10.8844C108.337 10.8844 110.253 9.49653 111.062 7.52095C108.639 4.82954 105.297 3.00713 101.529 2.58826C101.023 3.41975 100.723 4.39504 100.723 5.44222C100.723 8.44622 103.128 10.8844 106.096 10.8844Z" fill="white" fill-opacity="0.5"/>
<path d="M92.3167 38.3956C86.8171 39.993 82.5983 44.6412 81.5645 50.4242H92.3167V38.3956Z" fill="white" fill-opacity="0.75"/>
<path d="M100.696 38.3956V50.4242H111.448C110.414 44.6412 106.198 39.993 100.696 38.3956Z" fill="white" fill-opacity="0.75"/>
<path d="M100.696 33.2347V38.3956C106.195 39.993 110.414 44.6412 111.448 50.4241H111.5V27.755C108.883 30.9216 105.032 32.9878 100.696 33.2316V33.2347Z" fill="white"/>
<path d="M111.062 7.52095C111.324 6.88014 111.469 6.17993 111.469 5.44222C111.469 2.43509 109.065 0 106.096 0C104.164 0 102.473 1.0378 101.529 2.58826C105.297 3.01026 108.639 4.83267 111.062 7.52095Z" fill="white"/>
<path d="M8.24934 49.8021C5.99952 49.302 4.02128 48.4861 2.32389 47.3733C1.57395 46.9169 0.99992 46.3105 0.598717 45.5509C0.200601 44.7913 0 43.9316 0 42.9751C0 41.806 0.324048 40.837 0.97523 40.0461C1.62333 39.2678 2.42265 38.8708 3.37319 38.8708C4.02128 38.8708 4.67246 38.9833 5.32673 39.2115C5.97483 39.4397 6.64453 39.7054 7.34509 40.0086C8.7493 40.6713 10.1226 41.1902 11.4682 41.5653C12.8169 41.9498 14.4958 42.1342 16.4894 42.1342C18.2393 42.1342 19.6003 41.856 20.5786 41.2996C21.5538 40.7432 22.0414 39.9836 22.0414 39.024C22.0414 38.3144 21.8285 37.7455 21.3995 37.311C20.9798 36.8858 20.1928 36.4888 19.0386 36.1356C17.8905 35.7761 16.0666 35.351 13.5668 34.8446C9.11964 33.9787 5.92236 32.694 3.96882 30.9685C2.02144 29.2492 1.04621 26.8391 1.04621 23.757C1.04621 21.4782 1.73443 19.4245 3.10778 17.6021C4.48112 15.7796 6.37295 14.3511 8.7709 13.3133C11.1689 12.2755 13.8662 11.7566 16.8659 11.7566C19.0139 11.7566 21.1125 12.0348 23.1617 12.5912C25.2109 13.1539 27.0349 13.9322 28.6335 14.945C30.1828 15.9078 30.9574 17.3238 30.9574 19.1963C30.9574 20.4123 30.6333 21.4282 29.9822 22.2378C29.3341 23.0474 28.5347 23.4475 27.5842 23.4475C26.4361 23.4475 25.0597 22.9974 23.4611 22.0815C22.2112 21.425 21.0755 20.9312 20.0509 20.6061C19.0263 20.2778 17.8103 20.1122 16.4153 20.1122C14.8661 20.1122 13.6378 20.4029 12.7428 20.9843C11.8447 21.5657 11.3941 22.3628 11.3941 23.3756C11.3941 24.3884 11.9188 25.248 12.9681 25.8045C14.0174 26.3671 16.0419 26.9235 19.0386 27.4799C22.3871 28.1364 25.0103 28.9335 26.9083 29.8713C28.8125 30.809 30.1858 31.9844 31.0315 33.4004C31.8802 34.8227 32.306 36.6201 32.306 38.7958C32.306 42.3874 30.8494 45.2477 27.9206 47.3733C24.998 49.4989 21.0878 50.5617 16.187 50.5617C13.1378 50.5617 10.4899 50.3085 8.24317 49.8021H8.24934Z" fill="white"/>
<path d="M68.405 14.2261C70.877 15.8765 72.7966 18.1741 74.1761 21.1406C75.5495 24.1008 76.2377 27.5049 76.2377 31.3498C76.2377 35.1947 75.5495 38.5801 74.1761 41.4903C72.7966 44.4005 70.8863 46.6449 68.442 48.2079C65.9885 49.7771 63.1647 50.5617 59.9674 50.5617C57.4707 50.5617 55.2085 50.0428 53.184 49.005C51.1595 47.9734 49.5979 46.5136 48.4992 44.6412V58.9892C48.4992 60.5084 47.9992 61.7275 46.9993 62.634C45.9994 63.5499 44.6816 64 43.0274 64C41.2775 64 39.8672 63.5186 38.7932 62.559C37.7192 61.5962 37.1822 60.3271 37.1822 58.7579V17.302C37.1822 15.6827 37.6945 14.3792 38.7191 13.3914C39.7375 12.4099 41.1047 11.916 42.8021 11.916C44.4995 11.916 45.8512 12.4099 46.8543 13.3914C47.8542 14.3792 48.3541 15.6827 48.3541 17.302V17.9084C49.4528 15.9859 51.0268 14.4855 53.076 13.3914C55.1252 12.3036 57.4213 11.7597 59.9705 11.7597C63.1184 11.7597 65.9299 12.5818 68.4081 14.2261H68.405ZM62.8159 39.1365C64.2695 37.3391 64.9948 34.7414 64.9948 31.3498C64.9948 27.9582 64.2695 25.2387 62.8159 23.3412C61.3685 21.4438 59.3193 20.4935 56.6714 20.4935C54.0234 20.4935 51.968 21.4219 50.5206 23.2693C49.067 25.1167 48.348 27.7613 48.348 31.2029C48.348 34.6445 49.067 37.2172 50.5206 39.0646C51.968 40.912 54.0173 41.8341 56.6714 41.8341C59.3255 41.8341 61.3685 40.937 62.8159 39.1396V39.1365Z" fill="white"/>
<path d="M150.772 15.6734C152.92 18.2804 154 22.219 154 27.4831V45.0226C154 46.6981 153.482 48.0141 152.463 48.9706C151.438 49.9334 150.047 50.4179 148.303 50.4179C146.559 50.4179 145.18 49.9365 144.18 48.9706C143.18 48.0141 142.68 46.6949 142.68 45.0226V28.0145C142.68 25.4794 142.217 23.6319 141.294 22.4722C140.368 21.3031 138.933 20.7248 136.98 20.7248C134.631 20.7248 132.746 21.4844 131.317 23.0036C129.894 24.5228 129.181 26.5453 129.181 29.0773V45.0226C129.181 46.6981 128.681 48.0141 127.681 48.9706C126.681 49.9334 125.308 50.4179 123.564 50.4179C121.821 50.4179 120.422 49.9365 119.404 48.9706C118.379 48.0141 117.867 46.6949 117.867 45.0226V17.155C117.867 15.5858 118.404 14.3198 119.478 13.3539C120.552 12.3974 121.938 11.9129 123.638 11.9129C125.188 11.9129 126.45 12.3818 127.422 13.3164C128.397 14.2542 128.885 15.4545 128.885 16.9268V17.9897C130.184 15.9641 131.869 14.4167 133.943 13.3539C136.017 12.2911 138.353 11.7597 140.955 11.7597C145.353 11.7597 148.63 13.0632 150.778 15.6702L150.772 15.6734Z" fill="white"/>
</svg>
