<svg width="135" height="55" viewBox="0 0 135 55" fill="none" xmlns="http://www.w3.org/2000/svg">
<path d="M80.927 32.9962V26.8499C77.6967 25.0151 75.3159 21.8829 74.5097 18.165C72.7242 18.8393 71.4553 20.5478 71.4553 22.5571V43.3333H71.504C72.4103 38.3635 76.1059 34.369 80.9297 32.9962H80.927Z" fill="#E81E25"/>
<path d="M76.1898 6.01469C73.5872 6.01469 71.4796 8.10735 71.4796 10.6916C71.4796 12.5774 72.6078 14.1973 74.2256 14.9387C74.3338 11.6023 75.6811 8.58283 77.8319 6.31288C77.3206 6.12215 76.7687 6.01469 76.1898 6.01469Z" fill="#E81E25"/>
<path d="M80.927 26.8499V22.5571C80.927 19.9595 78.8059 17.8534 76.1898 17.8534C75.5973 17.8534 75.0319 17.9662 74.507 18.165C75.3132 21.8856 77.6967 25.0151 80.9243 26.8499H80.927Z" fill="#E88A8B"/>
<path d="M80.8999 10.6916C80.8999 8.68223 79.6229 6.97641 77.832 6.31288C75.6812 8.58283 74.3339 11.6023 74.2256 14.9387C74.8235 15.2127 75.4891 15.3685 76.1898 15.3685C78.7897 15.3685 80.8999 13.2759 80.8999 10.6916Z" fill="#E88A8B"/>
<path d="M93.0066 11.8575C90.3905 11.8575 88.2694 13.9636 88.2694 16.5613V28.5611C92.0705 28.3516 95.4469 26.5759 97.7411 23.8546V16.5639C97.7411 13.9663 95.62 11.8602 93.0039 11.8602L93.0066 11.8575Z" fill="#8F8FC6"/>
<path d="M93.0066 9.35382C94.9707 9.35382 96.6508 8.16109 97.3596 6.46332C95.2359 4.15039 92.3059 2.58426 89.0026 2.22429C88.5589 2.93885 88.2965 3.77699 88.2965 4.67691C88.2965 7.25848 90.404 9.35382 93.0066 9.35382Z" fill="#8F8FC6"/>
<path d="M80.927 32.9962C76.1059 34.369 72.4076 38.3635 71.5013 43.3333H80.927V32.9962Z" fill="#263B97"/>
<path d="M88.2722 32.9962V43.3333H97.6978C96.7915 38.3635 93.0959 34.369 88.2722 32.9962Z" fill="#263B97"/>
<path d="M88.2722 28.5611V32.9962C93.0932 34.369 96.7915 38.3635 97.6978 43.3333H97.7438V23.852C95.4496 26.5732 92.0733 28.3489 88.2722 28.5584V28.5611Z" fill="#3E56A6"/>
<path d="M97.3596 6.46332C97.5896 5.91262 97.7167 5.31088 97.7167 4.67691C97.7167 2.09265 95.6092 0 93.0066 0C91.313 0 89.8304 0.891863 89.0026 2.22428C92.3059 2.58694 95.2359 4.15307 97.3596 6.46332Z" fill="#3E56A6"/>
<path d="M7.23156 42.7987C5.25932 42.3689 3.52515 41.6677 2.03717 40.7114C1.37976 40.3192 0.876553 39.798 0.52485 39.1453C0.175852 38.4925 0 37.7537 0 36.9317C0 35.927 0.284068 35.0943 0.85491 34.4146C1.42305 33.7457 2.12375 33.4046 2.95701 33.4046C3.52515 33.4046 4.09599 33.5013 4.66954 33.6974C5.23768 33.8935 5.82475 34.1218 6.43888 34.3824C7.66984 34.9519 8.87375 35.3978 10.0533 35.7202C11.2356 36.0506 12.7073 36.2091 14.455 36.2091C15.989 36.2091 17.1821 35.97 18.0397 35.4918C18.8946 35.0137 19.322 34.3609 19.322 33.5362C19.322 32.9264 19.1354 32.4375 18.7593 32.0641C18.3914 31.6987 17.7015 31.3576 16.6897 31.054C15.6833 30.7451 14.0844 30.3798 11.893 29.9446C7.99449 29.2005 5.19168 28.0964 3.47916 26.6135C1.77204 25.136 0.917134 23.0649 0.917134 20.4161C0.917134 18.4578 1.52044 16.6929 2.72435 15.1267C3.92826 13.5606 5.58667 12.333 7.68878 11.4411C9.79088 10.5492 12.1554 10.1033 14.7851 10.1033C16.668 10.1033 18.5077 10.3424 20.3041 10.8206C22.1005 11.3041 23.6994 11.973 25.1008 12.8434C26.4589 13.6708 27.138 14.8877 27.138 16.4968C27.138 17.5418 26.8539 18.4148 26.2831 19.1106C25.7149 19.8063 25.0142 20.1502 24.181 20.1502C23.1745 20.1502 21.9679 19.7634 20.5665 18.9763C19.4708 18.4121 18.4753 17.9877 17.5771 17.7083C16.6789 17.4262 15.6129 17.2839 14.3901 17.2839C13.032 17.2839 11.9552 17.5337 11.1706 18.0334C10.3834 18.533 9.98838 19.218 9.98838 20.0884C9.98838 20.9588 10.4483 21.6975 11.3681 22.1757C12.288 22.6592 14.0627 23.1374 16.6897 23.6156C19.625 24.1797 21.9246 24.8647 23.5885 25.6706C25.2577 26.4765 26.4616 27.4866 27.2029 28.7035C27.9469 29.9258 28.3202 31.4704 28.3202 33.3401C28.3202 36.4267 27.0433 38.8847 24.4759 40.7114C21.9138 42.5381 18.4861 43.4515 14.1899 43.4515C11.5169 43.4515 9.19569 43.2339 7.22615 42.7987H7.23156Z" fill="#3E56A6"/>
<path d="M59.9654 12.2255C62.1325 13.6439 63.8152 15.6183 65.0245 18.1677C66.2285 20.7116 66.8318 23.6371 66.8318 26.9412C66.8318 30.2454 66.2285 33.1547 65.0245 35.6557C63.8152 38.1567 62.1406 40.0855 59.9979 41.4286C57.8471 42.7772 55.3716 43.4515 52.5688 43.4515C50.3802 43.4515 48.3971 43.0055 46.6223 42.1137C44.8476 41.2272 43.4787 39.9726 42.5155 38.3635V50.6938C42.5155 51.9994 42.0772 53.047 41.2007 53.8261C40.3241 54.6132 39.1689 55 37.7188 55C36.1849 55 34.9485 54.5863 34.007 53.7616C33.0655 52.9342 32.5948 51.8436 32.5948 50.495V14.8689C32.5948 13.4773 33.0439 12.3571 33.9421 11.5083C34.8349 10.6647 36.0334 10.2403 37.5213 10.2403C39.0093 10.2403 40.1943 10.6647 41.0735 11.5083C41.9501 12.3571 42.3884 13.4773 42.3884 14.8689V15.39C43.3515 13.7379 44.7313 12.4485 46.5277 11.5083C48.324 10.5734 50.3369 10.106 52.5715 10.106C55.3311 10.106 57.7957 10.8125 59.9681 12.2255H59.9654ZM55.0659 33.6329C56.3402 32.0883 56.976 29.8559 56.976 26.9412C56.976 24.0266 56.3402 21.6895 55.0659 20.0589C53.7971 18.4283 52.0007 17.6116 49.6795 17.6116C47.3582 17.6116 45.5564 18.4094 44.2876 19.9971C43.0133 21.5847 42.383 23.8573 42.383 26.815C42.383 29.7726 43.0133 31.9835 44.2876 33.5711C45.5564 35.1587 47.3528 35.9512 49.6795 35.9512C52.0061 35.9512 53.7971 35.1802 55.0659 33.6356V33.6329Z" fill="#3E56A6"/>
<path d="M132.17 13.4693C134.053 15.7097 135 19.0945 135 23.6182V38.6913C135 40.1311 134.546 41.2621 133.653 42.0841C132.755 42.9115 131.534 43.3279 130.006 43.3279C128.477 43.3279 127.268 42.9142 126.391 42.0841C125.515 41.2621 125.077 40.1285 125.077 38.6913V24.0749C125.077 21.8963 124.671 20.3087 123.862 19.3121C123.05 18.3074 121.792 17.8104 120.08 17.8104C118.021 17.8104 116.368 18.4632 115.115 19.7687C113.868 21.0743 113.243 22.8123 113.243 24.9883V38.6913C113.243 40.1311 112.805 41.2621 111.928 42.0841C111.052 42.9115 109.848 43.3279 108.319 43.3279C106.791 43.3279 105.565 42.9142 104.672 42.0841C103.774 41.2621 103.325 40.1285 103.325 38.6913V14.7426C103.325 13.3941 103.796 12.3061 104.737 11.476C105.679 10.654 106.894 10.2376 108.384 10.2376C109.742 10.2376 110.849 10.6406 111.701 11.4438C112.556 12.2497 112.983 13.2812 112.983 14.5465V15.4599C114.122 13.7191 115.6 12.3894 117.418 11.476C119.236 10.5627 121.284 10.106 123.564 10.106C127.419 10.106 130.293 11.2262 132.176 13.4666L132.17 13.4693Z" fill="#3E56A6"/>
</svg>
